<?xml version="1.0" encoding="UTF-8"?>
<svg width="1392px" height="797px" viewBox="0 0 1392 797" version="1.1" xmlns="http://www.w3.org/2000/svg" xmlns:xlink="http://www.w3.org/1999/xlink">
    <!-- Generator: Sketch 50.2 (55047) - http://www.bohemiancoding.com/sketch -->
    <title>Artboard</title>
    <desc>Created with Sketch.</desc>
    <defs></defs>
    <g id="Artboard" stroke="none" stroke-width="1" fill="none" fill-rule="evenodd">
        <g id="Group" transform="translate(695.500000, 389.500000) scale(-1, 1) translate(-695.500000, -389.500000) translate(0.000000, -16.000000)" fill-rule="nonzero" stroke="#000000" stroke-width="2">
            <path d="M238,17 C334.666667,17 398.666667,17 430,17 C526.666667,17 590.666667,17 622,17 C718.666667,17 782.666667,17 814,17 C910.666667,17 974.666667,17 1006,17 C1102.66667,17 1166.66667,17 1198,17 C1294.66667,17 1358.66667,17 1390,17" id="two_16051"></path>
            <path d="M238.004,25 C334.004,21 398.004,17.6666667 430.004,15 C526.004,19 590.004,22.3333333 622.004,25 C718.004,21 782.004,17.6666667 814.004,15 C910.004,19 974.004,22.3333333 1006.004,25 C1102.004,21 1166.004,17.6666667 1198.004,15 C1294.004,19 1358.004,22.3333333 1390.004,25" id="two_16053"></path>
            <path d="M237.008,35 C333.008,25.6666667 397.008,17.6666667 429.008,11 C525.008,20.3333333 589.008,28.3333333 621.008,35 C717.008,25.6666667 781.008,17.6666667 813.008,11 C909.008,20.3333333 973.008,28.3333333 1005.008,35 C1101.008,25.6666667 1165.008,17.6666667 1197.008,11 C1293.008,20.3333333 1357.008,28.3333333 1389.008,35" id="two_16055"></path>
            <path d="M235.011,44 C332.344333,31.3333333 396.344333,19.3333333 427.011,8 C524.344333,20.6666667 588.344333,32.6666667 619.011,44 C716.344333,31.3333333 780.344333,19.3333333 811.011,8 C908.344333,20.6666667 972.344333,32.6666667 1003.011,44 C1100.34433,31.3333333 1164.34433,19.3333333 1195.011,8 C1292.34433,20.6666667 1356.34433,32.6666667 1387.011,44" id="two_16057"></path>
            <path d="M232.015,53 C332.015,36.3333333 396.015,20.3333333 424.015,5 C524.015,21.6666667 588.015,37.6666667 616.015,53 C716.015,36.3333333 780.015,20.3333333 808.015,5 C908.015,21.6666667 972.015,37.6666667 1000.015,53 C1100.015,36.3333333 1164.015,20.3333333 1192.015,5 C1292.015,21.6666667 1356.015,37.6666667 1384.015,53" id="two_16059"></path>
            <path d="M230.019,60 C332.019,39.3333333 396.019,20.6666667 422.019,4 C524.019,24.6666667 588.019,43.3333333 614.019,60 C716.019,39.3333333 780.019,20.6666667 806.019,4 C908.019,24.6666667 972.019,43.3333333 998.019,60 C1100.019,39.3333333 1164.019,20.6666667 1190.019,4 C1292.019,24.6666667 1356.019,43.3333333 1382.019,60" id="two_16061"></path>
            <path d="M227.023,68 C330.356333,43.3333333 394.356333,21.3333333 419.023,2 C522.356333,26.6666667 586.356333,48.6666667 611.023,68 C714.356333,43.3333333 778.356333,21.3333333 803.023,2 C906.356333,26.6666667 970.356333,48.6666667 995.023,68 C1098.35633,43.3333333 1162.35633,21.3333333 1187.023,2 C1290.35633,26.6666667 1354.35633,48.6666667 1379.023,68" id="two_16063"></path>
            <path d="M224.027,75 C328.693667,47 392.693667,22.3333333 416.027,1 C520.693667,29 584.693667,53.6666667 608.027,75 C712.693667,47 776.693667,22.3333333 800.027,1 C904.693667,29 968.693667,53.6666667 992.027,75 C1096.69367,47 1160.69367,22.3333333 1184.027,1 C1288.69367,29 1352.69367,53.6666667 1376.027,75" id="two_16065"></path>
            <path d="M222.031,82 C328.031,52 392.031,24.6666667 414.031,0 C520.031,30 584.031,57.3333333 606.031,82 C712.031,52 776.031,24.6666667 798.031,0 C904.031,30 968.031,57.3333333 990.031,82 C1096.031,52 1160.031,24.6666667 1182.031,0 C1288.031,30 1352.031,57.3333333 1374.031,82" id="two_16067"></path>
            <path d="M218.034,88 C327.367333,56 391.367333,26.6666667 410.034,0 C519.367333,32 583.367333,61.3333333 602.034,88 C711.367333,56 775.367333,26.6666667 794.034,0 C903.367333,32 967.367333,61.3333333 986.034,88 C1095.36733,56 1159.36733,26.6666667 1178.034,0 C1287.36733,32 1351.36733,61.3333333 1370.034,88" id="two_16069"></path>
            <path d="M215.038,94 C327.038,59.3333333 391.038,28 407.038,0 C519.038,34.6666667 583.038,66 599.038,94 C711.038,59.3333333 775.038,28 791.038,0 C903.038,34.6666667 967.038,66 983.038,94 C1095.038,59.3333333 1159.038,28 1175.038,0 C1287.038,34.6666667 1351.038,66 1367.038,94" id="two_16071"></path>
            <path d="M212.042,100 C325.375333,62 389.375333,28.6666667 404.042,0 C517.375333,38 581.375333,71.3333333 596.042,100 C709.375333,62 773.375333,28.6666667 788.042,0 C901.375333,38 965.375333,71.3333333 980.042,100 C1093.37533,62 1157.37533,28.6666667 1172.042,0 C1285.37533,38 1349.37533,71.3333333 1364.042,100" id="two_16073"></path>
            <path d="M208.045,105 C323.378333,65.6666667 387.378333,31 400.045,1 C515.378333,40.3333333 579.378333,75 592.045,105 C707.378333,65.6666667 771.378333,31 784.045,1 C899.378333,40.3333333 963.378333,75 976.045,105 C1091.37833,65.6666667 1155.37833,31 1168.045,1 C1283.37833,40.3333333 1347.37833,75 1360.045,105" id="two_16075"></path>
            <path d="M204.049,110 C322.049,69.3333333 386.049,33.3333333 396.049,2 C514.049,42.6666667 578.049,78.6666667 588.049,110 C706.049,69.3333333 770.049,33.3333333 780.049,2 C898.049,42.6666667 962.049,78.6666667 972.049,110 C1090.049,69.3333333 1154.049,33.3333333 1164.049,2 C1282.049,42.6666667 1346.049,78.6666667 1356.049,110" id="two_16077"></path>
            <path d="M201.052,114 C321.052,72.6666667 385.052,36 393.052,4 C513.052,45.3333333 577.052,82 585.052,114 C705.052,72.6666667 769.052,36 777.052,4 C897.052,45.3333333 961.052,82 969.052,114 C1089.052,72.6666667 1153.052,36 1161.052,4 C1281.052,45.3333333 1345.052,82 1353.052,114" id="two_16079"></path>
            <path d="M197.056,118 C320.389333,76 384.389333,38.6666667 389.056,6 C512.389333,48 576.389333,85.3333333 581.056,118 C704.389333,76 768.389333,38.6666667 773.056,6 C896.389333,48 960.389333,85.3333333 965.056,118 C1088.38933,76 1152.38933,38.6666667 1157.056,6 C1280.38933,48 1344.38933,85.3333333 1349.056,118" id="two_16081"></path>
            <path d="M194.06,122 C319.393333,78 383.393333,40 386.06,8 C511.393333,52 575.393333,90 578.06,122 C703.393333,78 767.393333,40 770.06,8 C895.393333,52 959.393333,90 962.06,122 C1087.39333,78 1151.39333,40 1154.06,8 C1279.39333,52 1343.39333,90 1346.06,122" id="two_16083"></path>
            <path d="M191.063,126 C317.729667,80.6666667 381.729667,42 383.063,10 C509.729667,55.3333333 573.729667,94 575.063,126 C701.729667,80.6666667 765.729667,42 767.063,10 C893.729667,55.3333333 957.729667,94 959.063,126 C1085.72967,80.6666667 1149.72967,42 1151.063,10 C1277.72967,55.3333333 1341.72967,94 1343.063,126" id="two_16085"></path>
            <path d="M189.067,129 C317.067,83.6666667 381.067,45 381.067,13 C509.067,58.3333333 573.067,97 573.067,129 C701.067,83.6666667 765.067,45 765.067,13 C893.067,58.3333333 957.067,97 957.067,129 C1085.067,83.6666667 1149.067,45 1149.067,13 C1277.067,58.3333333 1341.067,97 1341.067,129" id="two_16087"></path>
            <path d="M187.07,133 C315.736667,87 379.736667,47.6666667 379.07,15 C507.736667,61 571.736667,100.333333 571.07,133 C699.736667,87 763.736667,47.6666667 763.07,15 C891.736667,61 955.736667,100.333333 955.07,133 C1083.73667,87 1147.73667,47.6666667 1147.07,15 C1275.73667,61 1339.73667,100.333333 1339.07515,133" id="two_16089"></path>
            <path d="M186.073,136 C316.073,90 380.073,50.6666667 378.073,18 C508.073,64 572.073,103.333333 570.073,136 C700.073,90 764.073,50.6666667 762.073,18 C892.073,64 956.073,103.333333 954.073,136 C1084.073,90 1148.073,50.6666667 1146.073,18 C1276.073,64 1340.073,103.333333 1338.073,136" id="two_16091"></path>
            <path d="M185.077,138 C316.410333,92 380.410333,53.3333333 377.077,22 C508.410333,68 572.410333,106.666667 569.077,138 C700.410333,92 764.410333,53.3333333 761.077,22 C892.410333,68 956.410333,106.666667 953.077,138 C1084.41033,92 1148.41033,53.3333333 1145.077,22 C1276.41033,68 1340.41033,106.666667 1337.077,138" id="two_16093"></path>
            <path d="M184.08,139 C316.08,93.6666667 380.08,56.3333333 376.08,27 C508.08,72.3333333 572.08,109.666667 568.08,139 C700.08,93.6666667 764.08,56.3333333 760.08,27 C892.08,72.3333333 956.08,109.666667 952.08,139 C1084.08,93.6666667 1148.08,56.3333333 1144.08,27 C1276.08,72.3333333 1340.08,109.666667 1336.08,139" id="two_16095"></path>
            <path d="M182.084,141 C314.750667,95.6666667 378.750667,59 374.084,31 C506.750667,76.3333333 570.750667,113 566.084,141 C698.750667,95.6666667 762.750667,59 758.084,31 C890.750667,76.3333333 954.750667,113 950.084,141 C1082.75067,95.6666667 1146.75067,59 1142.084,31 C1274.75067,76.3333333 1338.75067,113 1334.084,141" id="two_16097"></path>
            <path d="M181.087,145 C313.753667,99 377.753667,62 373.087,34 C505.753667,79.3333333 569.753667,116.333333 565.087,145 C697.753667,99 761.753667,62 757.087,34 C889.753667,79.3333333 953.753667,116.333333 949.087,145 C1081.75367,99 1145.75367,62 1141.087,34 C1273.75367,79.3333333 1337.75367,116.333333 1333.087,145" id="two_16099"></path>
            <path d="M181.09,148 C313.756667,102.666667 377.756667,65.3333333 373.09,36 C505.756667,81.3333333 569.756667,118.666667 565.09,148 C697.756667,102.666667 761.756667,65.3333333 757.09,36 C889.756667,81.3333333 953.756667,118.666667 949.09,148 C1081.75667,102.666667 1145.75667,65.3333333 1141.09,36 C1273.75667,81.3333333 1337.75667,118.666667 1333.09,148" id="two_16101"></path>
            <path d="M182.094,151 C314.760667,105 378.760667,67.6666667 374.094,39 C506.760667,85 570.760667,122.333333 566.094,151 C698.760667,105 762.760667,67.6666667 758.094,39 C890.760667,85 954.760667,122.333333 950.094,151 C1082.76067,105 1146.76067,67.6666667 1142.094,39 C1274.76067,85 1338.76067,122.333333 1334.094,151" id="two_16103"></path>
            <path d="M183.097,153 C315.097,107 379.097,70 375.097,42 C507.097,88.6666667 571.097,125.666667 567.097,153 C699.097,107 763.097,70 759.097,42 C891.097,88.6666667 955.097,125.666667 951.097,153 C1083.097,107 1147.097,70 1143.097,42 C1275.097,88.6666667 1339.097,125.666667 1335.097,153" id="two_16105"></path>
            <path d="M182.1,156 C314.766667,109.333333 379.1,72.6666667 375.1,46 C507.1,92.6666667 570.766667,129.333333 566.1,156 C698.766667,109.333333 763.1,72.6666667 759.1,46 C891.1,92.6666667 954.766667,129.333333 950.1,156 C1082.76667,109.333333 1147.1,72.6666667 1143.1,46 C1275.1,92.6666667 1338.76667,129.333333 1334.1,156" id="two_16107"></path>
            <path d="M182.103,160 C314.103,112 378.103,74.6666667 374.103,48 C506.103,96 570.103,133.333333 566.103,160 C698.103,112 762.103,74.6666667 758.103,48 C890.103,96 954.103,133.333333 950.103,160 C1082.103,112 1146.103,74.6666667 1142.103,48 C1274.103,96 1338.103,133.333333 1334.103,160" id="two_16109"></path>
            <path d="M183.106,164 C313.772667,116 377.772667,78 375.106,50 C505.772667,98 569.772667,136 567.106,164 C697.772667,116 761.772667,78 759.106,50 C889.772667,98 953.772667,136 951.106,164 C1081.77267,116 1145.77267,78 1143.106,50 C1273.77267,98 1337.77267,136 1335.106,164" id="two_16111"></path>
            <path d="M185.11,168 C314.443333,119.333333 378.443333,80.6666667 377.11,52 C506.443333,100.666667 570.443333,139.333333 569.11,168 C698.443333,119.333333 762.443333,80.6666667 761.11,52 C890.443333,100.666667 954.443333,139.333333 953.11,168 C1082.44333,119.333333 1146.44333,80.6666667 1145.11,52 C1274.44333,100.666667 1338.44333,139.333333 1337.11,168" id="two_16113"></path>
            <path d="M185.113,171 C315.113,122.333333 379.113,83.6666667 377.113,55 C507.113,103.666667 571.113,142.333333 569.113,171 C699.113,122.333333 763.113,83.6666667 761.113,55 C891.113,103.666667 955.113,142.333333 953.113,171 C1083.113,122.333333 1147.113,83.6666667 1145.113,55 C1275.113,103.666667 1339.113,142.333333 1337.113,171" id="two_16115"></path>
            <path d="M186.116,176 C316.116,125.333333 380.116,85.3333333 378.116,56 C508.116,106.666667 572.116,146.666667 570.116,176 C700.116,125.333333 764.116,85.3333333 762.116,56 C892.116,106.666667 956.116,146.666667 954.116,176 C1084.116,125.333333 1148.116,85.3333333 1146.116,56 C1276.116,106.666667 1340.116,146.666667 1338.116,176" id="two_16117"></path>
            <path d="M188.119,182 C316.119,128 380.119,86 380.119,56 C508.119,110 572.119,152 572.119,182 C700.119,128 764.119,86 764.119,56 C892.119,110 956.119,152 956.119,182 C1084.119,128 1148.119,86 1148.119,56 C1276.119,110 1340.119,152 1340.119,182" id="two_16119"></path>
            <path d="M189.122,185 C316.455333,131 380.455333,89 381.122,59 C508.455333,113 572.455333,155 573.122,185 C700.455333,131 764.455333,89 765.122,59 C892.455333,113 956.455333,155 957.122,185 C1084.45533,131 1148.45533,89 1149.122,59 C1276.45533,113 1340.45533,155 1341.122,185" id="two_16121"></path>
            <path d="M189.125,191 C315.791667,135 379.791667,91 381.125,59 C507.791667,115 571.791667,159 573.125,191 C699.791667,135 763.791667,91 765.125,59 C891.791667,115 955.791667,159 957.125,191 C1083.79167,135 1147.79167,91 1149.125,59 C1275.79167,115 1339.79167,159 1341.125,191" id="two_16123"></path>
            <path d="M191.128,197 C316.461333,139 380.461333,93 383.128,59 C508.461333,117 572.461333,163 575.128,197 C700.461333,139 764.461333,93 767.128,59 C892.461333,117 956.461333,163 959.128,197 C1084.46133,139 1148.46133,93 1151.128,59 C1276.46133,117 1340.46133,163 1343.128,197" id="two_16125"></path>
            <path d="M191.131,201 C316.464333,142.333333 380.464333,95.6666667 383.131,61 C508.464333,119.666667 572.464333,166.333333 575.131,201 C700.464333,142.333333 764.464333,95.6666667 767.131,61 C892.464333,119.666667 956.464333,166.333333 959.131,201 C1084.46433,142.333333 1148.46433,95.6666667 1151.131,61 C1276.46433,119.666667 1340.46433,166.333333 1343.131,201" id="two_16127"></path>
            <path d="M190.134,208 C316.800667,146.666667 380.800667,97.3333333 382.134,60 C508.800667,121.333333 572.800667,170.666667 574.134,208 C700.800667,146.666667 764.800667,97.3333333 766.134,60 C892.800667,121.333333 956.800667,170.666667 958.134,208 C1084.80067,146.666667 1148.80067,97.3333333 1150.134,60 C1276.80067,121.333333 1340.80067,170.666667 1342.134,208" id="two_16129"></path>
            <path d="M192.137,215 C317.470333,149.666667 381.470333,97.6666667 384.137,59 C509.470333,124.333333 573.470333,176.333333 576.137,215 C701.470333,149.666667 765.470333,97.6666667 768.137,59 C893.470333,124.333333 957.470333,176.333333 960.137,215 C1085.47033,149.666667 1149.47033,97.6666667 1152.137,59 C1277.47033,124.333333 1341.47033,176.333333 1344.137,215" id="two_16131"></path>
            <path d="M191.14,219 C316.473333,152.333333 380.473333,99.6666667 383.14,61 C508.473333,127.666667 572.473333,180.333333 575.14,219 C700.473333,152.333333 764.473333,99.6666667 767.14,61 C892.473333,127.666667 956.473333,180.333333 959.14,219 C1084.47333,152.333333 1148.47333,99.6666667 1151.14,61 C1276.47333,127.666667 1340.47333,180.333333 1343.14,219" id="two_16133"></path>
            <path d="M191.143,227 C315.809667,157 379.809667,101 383.143,59 C507.809667,129 571.809667,185 575.143,227 C699.809667,157 763.809667,101 767.143,59 C891.809667,129 955.809667,185 959.143,227 C1083.80967,157 1147.80967,101 1151.143,59 C1275.80967,129 1339.80967,185 1343.143,227" id="two_16135"></path>
            <path d="M192.146,232 C316.146,160.666667 380.146,103.333333 384.146,60 C508.146,131.333333 572.146,188.666667 576.146,232 C700.146,160.666667 764.146,103.333333 768.146,60 C892.146,131.333333 956.146,188.666667 960.146,232 C1084.146,160.666667 1148.146,103.333333 1152.146,60 C1276.146,131.333333 1340.146,188.666667 1344.146,232" id="two_16137"></path>
            <path d="M189.149,239 C315.149,165.666667 379.149,105.666667 381.149,59 C507.149,132.333333 571.149,192.333333 573.149,239 C699.149,165.666667 763.149,105.666667 765.149,59 C891.149,132.333333 955.149,192.333333 957.149,239 C1083.149,165.666667 1147.149,105.666667 1149.149,59 C1275.149,132.333333 1339.149,192.333333 1341.149,239" id="two_16139"></path>
            <path d="M190.152,246 C316.152,169.333333 379.818667,106.666667 381.152,58 C507.818667,134.666667 572.152,197.333333 574.152,246 C700.152,169.333333 763.818667,106.666667 765.152,58 C891.818667,134.666667 956.152,197.333333 958.152,246 C1084.152,169.333333 1147.81867,106.666667 1149.152,58 C1275.81867,134.666667 1340.152,197.333333 1342.152,246" id="two_16141"></path>
            <path d="M187.155,251 C315.155,173 379.155,109 379.155,59 C507.155,137 571.155,201 571.155,251 C699.155,173 763.155,109 763.155,59 C891.155,137 955.155,201 955.155,251 C1083.155,173 1147.155,109 1147.155,59 C1275.155,137 1339.155,201 1339.155,251" id="two_16143"></path>
            <path d="M187.157,259 C315.157,176.333333 378.823667,108.666667 378.157,56 C506.823667,139.333333 571.157,207 571.157,259 C699.157,176.333333 762.823667,108.666667 762.157,56 C890.823667,139.333333 955.157,207 955.157,259 C1083.157,176.333333 1146.82367,108.666667 1146.157,56 C1274.82367,139.333333 1339.157,207 1339.157,259" id="two_16145"></path>
            <path d="M185.16,264 C313.826667,180 377.826667,111.333333 377.16,58 C505.826667,142 569.826667,210.666667 569.16,264 C697.826667,180 761.826667,111.333333 761.16,58 C889.826667,142 953.826667,210.666667 953.16,264 C1081.82667,180 1145.82667,111.333333 1145.16,58 C1273.82667,142 1337.82667,210.666667 1337.16515,264" id="two_16147"></path>
            <path d="M182.163,272 C312.163,184 376.163,112 374.163,56 C504.163,144 568.163,216 566.163,272 C696.163,184 760.163,112 758.163,56 C888.163,144 952.163,216 950.163,272 C1080.163,184 1144.163,112 1142.163,56 C1272.163,144 1336.163,216 1334.163,272" id="two_16149"></path>
            <path d="M181.166,277 C311.832667,188.333333 375.832667,115 373.166,57 C503.832667,145.666667 567.832667,219 565.166,277 C695.832667,188.333333 759.832667,115 757.166,57 C887.832667,145.666667 951.832667,219 949.166,277 C1079.83267,188.333333 1143.83267,115 1141.166,57 C1271.83267,145.666667 1335.83267,219 1333.166,277" id="two_16151"></path>
            <path d="M177.169,284 C310.502333,192.666667 374.502333,116.666667 369.169,56 C502.502333,147.333333 566.502333,223.333333 561.169,284 C694.502333,192.666667 758.502333,116.666667 753.169,56 C886.502333,147.333333 950.502333,223.333333 945.169,284 C1078.50233,192.666667 1142.50233,116.666667 1137.169,56 C1270.50233,147.333333 1334.50233,223.333333 1329.169,284" id="two_16153"></path>
            <path d="M175.171,289 C310.504333,196.333333 374.504333,119 367.171,57 C502.504333,149.666667 566.504333,227 559.171,289 C694.504333,196.333333 758.504333,119 751.171,57 C886.504333,149.666667 950.504333,227 943.171,289 C1078.50433,196.333333 1142.50433,119 1135.171,57 C1270.50433,149.666667 1334.50433,227 1327.171,289" id="two_16155"></path>
            <path d="M171.174,296 C309.174,200 373.174,120 363.174,56 C501.174,152 565.174,232 555.174,296 C693.174,200 757.174,120 747.174,56 C885.174,152 949.174,232 939.174,296 C1077.174,200 1141.174,120 1131.174,56 C1269.174,152 1333.174,232 1323.174,296" id="two_16157"></path>
            <path d="M169.177,300 C308.510333,202.666667 372.510333,122 361.177,58 C500.510333,155.333333 564.510333,236 553.177,300 C692.510333,202.666667 756.510333,122 745.177,58 C884.510333,155.333333 948.510333,236 937.177,300 C1076.51033,202.666667 1140.51033,122 1129.177,58 C1268.51033,155.333333 1332.51033,236 1321.177,300" id="two_16159"></path>
            <path d="M165.179,307 C306.512333,206.333333 370.512333,123 357.179,57 C498.512333,157.666667 562.512333,241 549.179,307 C690.512333,206.333333 754.512333,123 741.179,57 C882.512333,157.666667 946.512333,241 933.179,307 C1074.51233,206.333333 1138.51233,123 1125.179,57 C1266.51233,157.666667 1330.51233,241 1317.179,307" id="two_16161"></path>
            <path d="M162.182,311 C304.848667,209.666667 368.848667,125.666667 354.182,59 C496.848667,160.333333 560.848667,244.333333 546.182,311 C688.848667,209.666667 752.848667,125.666667 738.182,59 C880.848667,160.333333 944.848667,244.333333 930.182,311 C1072.84867,209.666667 1136.84867,125.666667 1122.182,59 C1264.84867,160.333333 1328.84867,244.333333 1314.182,311" id="two_16163"></path>
            <path d="M159.185,317 C303.851667,213.666667 367.851667,127.666667 351.185,59 C495.851667,162.333333 559.851667,248.333333 543.185,317 C687.851667,213.666667 751.851667,127.666667 735.185,59 C879.851667,162.333333 943.851667,248.333333 927.185,317 C1071.85167,213.666667 1135.85167,127.666667 1119.185,59 C1263.85167,162.333333 1327.85167,248.333333 1311.185,317" id="two_16165"></path>
            <path d="M155.187,320 C302.520333,217.333333 366.520333,131.333333 347.187,62 C494.520333,165.333333 558.520333,251.333333 539.187,320 C686.520333,217.333333 750.520333,131.333333 731.187,62 C878.520333,165.333333 942.520333,251.333333 923.187,320 C1070.52033,217.333333 1134.52033,131.333333 1115.187,62 C1262.52033,165.333333 1326.52033,251.333333 1307.187,320" id="two_16167"></path>
            <path d="M152.19,326 C302.19,220.666667 366.19,132.666667 344.19,62 C494.19,167.333333 558.19,255.333333 536.19,326 C686.19,220.666667 750.19,132.666667 728.19,62 C878.19,167.333333 942.19,255.333333 920.19,326 C1070.19,220.666667 1134.19,132.666667 1112.19,62 C1262.19,167.333333 1326.19,255.333333 1304.19,326" id="two_16169"></path>
            <path d="M147.193,330 C300.526333,224 364.526333,135.666667 339.193,65 C492.526333,170.333333 556.526333,258.666667 531.193,330 C684.526333,224 748.526333,135.666667 723.193,65 C876.526333,170.333333 940.526333,258.666667 915.193,330 C1068.52633,224 1132.52633,135.666667 1107.193,65 C1260.52633,170.333333 1324.52633,258.666667 1299.193,330" id="two_16171"></path>
            <path d="M145.195,333 C299.861667,226.333333 363.861667,137.666667 337.195,67 C491.861667,173.666667 555.861667,262.333333 529.195,333 C683.861667,226.333333 747.861667,137.666667 721.195,67 C875.861667,173.666667 939.861667,262.333333 913.195,333 C1067.86167,226.333333 1131.86167,137.666667 1105.195,67 C1259.86167,173.666667 1323.86167,262.333333 1297.195,333" id="two_16173"></path>
            <path d="M139.198,338 C297.198,229.333333 361.198,139.333333 331.198,68 C489.198,176.666667 553.198,266.666667 523.198,338 C681.198,229.333333 745.198,139.333333 715.198,68 C873.198,176.666667 937.198,266.666667 907.198,338 C1065.198,229.333333 1129.198,139.333333 1099.198,68 C1257.198,176.666667 1321.198,266.666667 1291.198,338" id="two_16175"></path>
            <path d="M137.2,340 C296.533333,231.333333 360.533333,142 329.2,72 C488.533333,180.666667 552.533333,270 521.2,340 C680.533333,231.333333 744.533333,142 713.2,72 C872.533333,180.666667 936.533333,270 905.2,340 C1064.53333,231.333333 1128.53333,142 1097.2,72 C1256.53333,180.666667 1320.53333,270 1289.2,340" id="two_16177"></path>
            <path d="M133.203,345 C294.536333,235.666667 358.536333,145 325.203,73 C486.536333,182.333333 550.536333,273 517.203,345 C678.536333,235.666667 742.536333,145 709.203,73 C870.536333,182.333333 934.536333,273 901.203,345 C1062.53633,235.666667 1126.53633,145 1093.203,73 C1254.53633,182.333333 1318.53633,273 1285.203,345" id="two_16179"></path>
            <path d="M128.205,347 C292.871667,238.333333 356.871667,148.333333 320.205,77 C484.871667,185.666667 548.871667,275.666667 512.205,347 C676.871667,238.333333 740.871667,148.333333 704.205,77 C868.871667,185.666667 932.871667,275.666667 896.205,347 C1060.87167,238.333333 1124.87167,148.333333 1088.205,77 C1252.87167,185.666667 1316.87167,275.666667 1280.205,347" id="two_16181"></path>
            <path d="M126.208,350 C292.208,241.333333 356.208,151.333333 318.208,80 C484.208,188.666667 548.208,278.666667 510.208,350 C676.208,241.333333 740.208,151.333333 702.208,80 C868.208,188.666667 932.208,278.666667 894.208,350 C1060.208,241.333333 1124.208,151.333333 1086.208,80 C1252.208,188.666667 1316.208,278.666667 1278.208,350" id="two_16183"></path>
            <path d="M122.21,353 C291.543333,244.333333 355.543333,154.333333 314.21,83 C483.543333,191.666667 547.543333,281.666667 506.21,353 C675.543333,244.333333 739.543333,154.333333 698.21,83 C867.543333,191.666667 931.543333,281.666667 890.21,353 C1059.54333,244.333333 1123.54333,154.333333 1082.21,83 C1251.54333,191.666667 1315.54333,281.666667 1274.21,353" id="two_16185"></path>
            <path d="M118.213,354 C290.213,246 354.213,157.333333 310.213,88 C482.213,196 546.213,284.666667 502.213,354 C674.213,246 738.213,157.333333 694.213,88 C866.213,196 930.213,284.666667 886.213,354 C1058.213,246 1122.213,157.333333 1078.213,88 C1250.213,196 1314.213,284.666667 1270.213,354" id="two_16187"></path>
            <path d="M117.215,357 C289.881667,248.333333 353.881667,159.666667 309.215,91 C481.881667,199.666667 545.881667,288.333333 501.215,357 C673.881667,248.333333 737.881667,159.666667 693.215,91 C865.881667,199.666667 929.881667,288.333333 885.215,357 C1057.88167,248.333333 1121.88167,159.666667 1077.215,91 C1249.88167,199.666667 1313.88167,288.333333 1269.215,357" id="two_16189"></path>
            <path d="M112.218,360 C287.551333,250.666667 351.551333,162 304.218,94 C479.551333,203.333333 543.551333,292 496.218,360 C671.551333,250.666667 735.551333,162 688.218,94 C863.551333,203.333333 927.551333,292 880.218,360 C1055.55133,250.666667 1119.55133,162 1072.218,94 C1247.55133,203.333333 1311.55133,292 1264.218,360" id="two_16191"></path>
            <path d="M109.22,360 C285.886667,252.666667 349.886667,166 301.22,100 C477.886667,207.333333 541.886667,294 493.22,360 C669.886667,252.666667 733.886667,166 685.22,100 C861.886667,207.333333 925.886667,294 877.22,360 C1053.88667,252.666667 1117.88667,166 1069.22,100 C1245.88667,207.333333 1309.88667,294 1261.22,360" id="two_16193"></path>
            <path d="M108.223,363 C285.556333,255.666667 349.556333,169 300.223,103 C477.556333,210.333333 541.556333,297 492.223,363 C669.556333,255.666667 733.556333,169 684.223,103 C861.556333,210.333333 925.556333,297 876.223,363 C1053.55633,255.666667 1117.55633,169 1068.223,103 C1245.55633,210.333333 1309.55633,297 1260.223,363" id="two_16195"></path>
            <path d="M104.225,365 C283.558333,259 347.558333,173 296.225,107 C475.558333,213 539.558333,299 488.225,365 C667.558333,259 731.558333,173 680.225,107 C859.558333,213 923.558333,299 872.225,365 C1051.55833,259 1115.55833,173 1064.225,107 C1243.55833,213 1307.55833,299 1256.225,365" id="two_16197"></path>
            <path d="M101.227,365 C283.227,261 347.227,177 293.227,113 C475.227,217 539.227,301 485.227,365 C667.227,261 731.227,177 677.227,113 C859.227,217 923.227,301 869.227,365 C1051.227,261 1115.227,177 1061.227,113 C1243.227,217 1307.227,301 1253.227,365" id="two_16199"></path>
            <path d="M101.23,367 C283.23,263.666667 347.23,180.333333 293.23,117 C475.23,220.333333 539.23,303.666667 485.23,367 C667.23,263.666667 731.23,180.333333 677.23,117 C859.23,220.333333 923.23,303.666667 869.23,367 C1051.23,263.666667 1115.23,180.333333 1061.23,117 C1243.23,220.333333 1307.23,303.666667 1253.23,367" id="two_16201"></path>
            <path d="M98.232,370 C282.898667,266 346.898667,182.666667 290.232,120 C474.898667,224 538.898667,307.333333 482.232,370 C666.898667,266 730.898667,182.666667 674.232,120 C858.898667,224 922.898667,307.333333 866.232,370 C1050.89867,266 1114.89867,182.666667 1058.232,120 C1242.89867,224 1306.89867,307.333333 1250.232,370" id="two_16203"></path>
            <path d="M95.234,371 C281.234,267.666667 345.234,186 287.234,126 C473.900667,228.666667 537.900667,310.333333 479.234,371 C665.234,267.666667 729.234,186 671.234,126 C857.900667,228.666667 921.900667,310.333333 863.234,371 C1049.234,267.666667 1113.234,186 1055.234,126 C1241.90067,228.666667 1305.90067,310.333333 1247.234,371" id="two_16205"></path>
            <path d="M95.237,371 C281.237,269 345.237,189 287.237,131 C473.237,233 537.237,313 479.237,371 C665.237,269 729.237,189 671.237,131 C857.237,233 921.237,313 863.237,371 C1049.237,269 1113.237,189 1055.237,131 C1241.237,233 1305.237,313 1247.237,371" id="two_16207"></path>
            <path d="M94.239,373 C280.239,271.666667 344.239,192.333333 286.239,135 C472.239,236.333333 536.239,315.666667 478.239,373 C664.239,271.666667 728.239,192.333333 670.239,135 C856.239,236.333333 920.239,315.666667 862.239,373 C1048.239,271.666667 1112.239,192.333333 1054.239,135 C1240.239,236.333333 1304.239,315.666667 1246.239,373" id="two_16209"></path>
            <path d="M91.241,375 C278.574333,274.333333 342.574333,195.666667 283.241,139 C470.574333,239.666667 534.574333,318.333333 475.241,375 C662.574333,274.333333 726.574333,195.666667 667.241,139 C854.574333,239.666667 918.574333,318.333333 859.241,375 C1046.57433,274.333333 1110.57433,195.666667 1051.241,139 C1238.57433,239.666667 1302.57433,318.333333 1243.241,375" id="two_16211"></path>
            <path d="M90.244,376 C278.244,276.666667 342.244,199.333333 282.244,144 C470.244,243.333333 534.244,320.666667 474.244,376 C662.244,276.666667 726.244,199.333333 666.244,144 C854.244,243.333333 918.244,320.666667 858.244,376 C1046.244,276.666667 1110.244,199.333333 1050.244,144 C1238.244,243.333333 1302.244,320.666667 1242.244,376" id="two_16213"></path>
            <path d="M90.246,376 C278.246,278.666667 342.246,203.333333 282.246,150 C470.246,247.333333 534.246,322.666667 474.246,376 C662.246,278.666667 726.246,203.333333 666.246,150 C854.246,247.333333 918.246,322.666667 858.246,376 C1046.246,278.666667 1110.246,203.333333 1050.246,150 C1238.246,247.333333 1302.246,322.666667 1242.246,376" id="two_16215"></path>
            <path d="M90.248,379 C278.914667,281.666667 342.914667,206.333333 282.248,153 C470.914667,250.333333 534.914667,325.666667 474.248,379 C662.914667,281.666667 726.914667,206.333333 666.248,153 C854.914667,250.333333 918.914667,325.666667 858.248,379 C1046.91467,281.666667 1110.91467,206.333333 1050.248,153 C1238.91467,250.333333 1302.91467,325.666667 1242.248,379" id="two_16217"></path>
            <path d="M88.25,381 C278.25,284.333333 342.25,209.666667 280.25,157 C470.25,253.666667 534.25,328.333333 472.25,381 C662.25,284.333333 726.25,209.666667 664.25,157 C854.25,253.666667 918.25,328.333333 856.25,381 C1046.25,284.333333 1110.25,209.666667 1048.25,157 C1238.25,253.666667 1302.25,328.333333 1240.25,381" id="two_16219"></path>
            <path d="M87.253,382 C277.919667,286 341.919667,212.666667 279.253,162 C469.919667,258 533.919667,331.333333 471.253,382 C661.919667,286 725.919667,212.666667 663.253,162 C853.919667,258 917.919667,331.333333 855.253,382 C1045.91967,286 1109.91967,212.666667 1047.253,162 C1237.91967,258 1301.91967,331.333333 1239.253,382" id="two_16221"></path>
            <path d="M87.255,383 C277.921667,287.666667 341.921667,215.666667 279.255,167 C469.921667,262.333333 533.921667,334.333333 471.255,383 C661.921667,287.666667 725.921667,215.666667 663.255,167 C853.921667,262.333333 917.921667,334.333333 855.255,383 C1045.92167,287.666667 1109.92167,215.666667 1047.255,167 C1237.92167,262.333333 1301.92167,334.333333 1239.255,383" id="two_16223"></path>
            <path d="M88.257,385 C277.590333,290.333333 341.590333,219 280.257,171 C469.590333,265.666667 533.590333,337 472.257,385 C661.590333,290.333333 725.590333,219 664.257,171 C853.590333,265.666667 917.590333,337 856.257,385 C1045.59033,290.333333 1109.59033,219 1048.257,171 C1237.59033,265.666667 1301.59033,337 1240.257,385" id="two_16225"></path>
            <path d="M88.259,388 C277.592333,292.666667 341.592333,221.333333 280.259,174 C469.592333,269.333333 533.592333,340.666667 472.259,388 C661.592333,292.666667 725.592333,221.333333 664.259,174 C853.592333,269.333333 917.592333,340.666667 856.259,388 C1045.59233,292.666667 1109.59233,221.333333 1048.259,174 C1237.59233,269.333333 1301.59233,340.666667 1240.259,388" id="two_16227"></path>
            <path d="M87.261,390 C276.594333,296 340.594333,225.333333 279.261,178 C468.594333,272 532.594333,342.666667 471.261,390 C660.594333,296 724.594333,225.333333 663.261,178 C852.594333,272 916.594333,342.666667 855.261,390 C1044.59433,296 1108.59433,225.333333 1047.261,178 C1236.59433,272 1300.59433,342.666667 1239.261,390" id="two_16229"></path>
            <path d="M86.264,391 C276.264,298.333333 340.264,229 278.264,183 C468.264,275.666667 532.264,345 470.264,391 C660.264,298.333333 724.264,229 662.264,183 C852.264,275.666667 916.264,345 854.264,391 C1044.264,298.333333 1108.264,229 1046.264,183 C1236.264,275.666667 1300.264,345 1238.264,391" id="two_16231"></path>
            <path d="M86.266,393 C276.266,301 340.266,232.333333 278.266,187 C468.266,279 532.266,347.666667 470.266,393 C660.266,301 724.266,232.333333 662.266,187 C852.266,279 916.266,347.666667 854.266,393 C1044.266,301 1108.266,232.333333 1046.266,187 C1236.266,279 1300.266,347.666667 1238.266,393" id="two_16233"></path>
            <path d="M88.268,395 C276.934667,303.666667 340.934667,235.666667 280.268,191 C468.934667,282.333333 532.934667,350.333333 472.268,395 C660.934667,303.666667 724.934667,235.666667 664.268,191 C852.934667,282.333333 916.934667,350.333333 856.268,395 C1044.93467,303.666667 1108.93467,235.666667 1048.268,191 C1236.93467,282.333333 1300.93467,350.333333 1240.268,395" id="two_16235"></path>
            <path d="M88.27,398 C277.603333,306.666667 341.603333,238.666667 280.27,194 C469.603333,285.333333 533.603333,353.333333 472.27,398 C661.603333,306.666667 725.603333,238.666667 664.27,194 C853.603333,285.333333 917.603333,353.333333 856.27,398 C1045.60333,306.666667 1109.60333,238.666667 1048.27,194 C1237.60333,285.333333 1301.60333,353.333333 1240.27,398" id="two_16237"></path>
            <path d="M88.272,402 C277.605333,309.333333 341.605333,240.666667 280.272,196 C469.605333,288.666667 533.605333,357.333333 472.272,402 C661.605333,309.333333 725.605333,240.666667 664.272,196 C853.605333,288.666667 917.605333,357.333333 856.272,402 C1045.60533,309.333333 1109.60533,240.666667 1048.272,196 C1237.60533,288.666667 1301.60533,357.333333 1240.272,402" id="two_16239"></path>
            <path d="M88.274,404 C277.607333,311.333333 341.607333,243.333333 280.274,200 C469.607333,292.666667 533.607333,360.666667 472.274,404 C661.607333,311.333333 725.607333,243.333333 664.274,200 C853.607333,292.666667 917.607333,360.666667 856.274,404 C1045.60733,311.333333 1109.60733,243.333333 1048.274,200 C1237.60733,292.666667 1301.60733,360.666667 1240.274,404" id="two_16241"></path>
            <path d="M87.276,406 C276.609333,314 340.609333,246.666667 279.276,204 C468.609333,296 532.609333,363.333333 471.276,406 C660.609333,314 724.609333,246.666667 663.276,204 C852.609333,296 916.609333,363.333333 855.276,406 C1044.60933,314 1108.60933,246.666667 1047.276,204 C1236.60933,296 1300.60933,363.333333 1239.276,406" id="two_16243"></path>
            <path d="M87.278,409 C275.944667,316.333333 340.278,249.333333 280.278,208 C468.278,300 531.944667,367 471.278,409 C659.944667,316.333333 724.278,249.333333 664.278,208 C852.278,300 915.944667,367 855.278,409 C1043.94467,316.333333 1108.278,249.333333 1048.278,208 C1236.278,300 1299.94467,367 1239.278,409" id="two_16245"></path>
            <path d="M89.281,411 C276.614333,319 340.614333,252.333333 281.281,211 C468.614333,303 532.614333,369.666667 473.281,411 C660.614333,319 724.614333,252.333333 665.281,211 C852.614333,303 916.614333,369.666667 857.281,411 C1044.61433,319 1108.61433,252.333333 1049.281,211 C1236.61433,303 1300.61433,369.666667 1241.281,411" id="two_16247"></path>
            <path d="M89.283,415 C275.949667,323 339.949667,255.666667 281.283,213 C467.949667,305 531.949667,372.333333 473.283,415 C659.949667,323 723.949667,255.666667 665.283,213 C851.949667,305 915.949667,372.333333 857.283,415 C1043.94967,323 1107.94967,255.666667 1049.283,213 C1235.94967,305 1299.94967,372.333333 1241.283,415" id="two_16249"></path>
            <path d="M90.285,419 C276.285,326.333333 340.285,258.333333 282.285,215 C468.285,307.666667 532.285,375.666667 474.285,419 C660.285,326.333333 724.285,258.333333 666.285,215 C852.285,307.666667 916.285,375.666667 858.285,419 C1044.285,326.333333 1108.285,258.333333 1050.285,215 C1236.285,307.666667 1300.285,375.666667 1242.285,419" id="two_16251"></path>
            <path d="M90.287,423 C276.953667,329.666667 340.953667,261 282.287,217 C468.953667,310.333333 532.953667,379 474.287,423 C660.953667,329.666667 724.953667,261 666.287,217 C852.953667,310.333333 916.953667,379 858.287,423 C1044.95367,329.666667 1108.95367,261 1050.287,217 C1236.95367,310.333333 1300.95367,379 1242.287,423" id="two_16253"></path>
            <path d="M89.289,426 C276.622333,332.666667 340.622333,264 281.289,220 C468.622333,313.333333 532.622333,382 473.289,426 C660.622333,332.666667 724.622333,264 665.289,220 C852.622333,313.333333 916.622333,382 857.289,426 C1044.62233,332.666667 1108.62233,264 1049.289,220 C1236.62233,313.333333 1300.62233,382 1241.289,426" id="two_16255"></path>
            <path d="M89.291,430 C276.624333,335.333333 340.624333,266 281.291,222 C468.624333,316.666667 532.624333,386 473.291,430 C660.624333,335.333333 724.624333,266 665.291,222 C852.624333,316.666667 916.624333,386 857.291,430 C1044.62433,335.333333 1108.62433,266 1049.291,222 C1236.62433,316.666667 1300.62433,386 1241.291,430" id="two_16257"></path>
            <path d="M88.293,433 C276.293,337.666667 340.293,268.333333 280.293,225 C468.293,320.333333 532.293,389.666667 472.293,433 C660.293,337.666667 724.293,268.333333 664.293,225 C852.293,320.333333 916.293,389.666667 856.293,433 C1044.293,337.666667 1108.293,268.333333 1048.293,225 C1236.293,320.333333 1300.293,389.666667 1240.293,433" id="two_16259"></path>
            <path d="M88.295,436 C276.295,340.666667 340.295,271.333333 280.295,228 C468.295,323.333333 532.295,392.666667 472.295,436 C660.295,340.666667 724.295,271.333333 664.295,228 C852.295,323.333333 916.295,392.666667 856.295,436 C1044.295,340.666667 1108.295,271.333333 1048.295,228 C1236.295,323.333333 1300.295,392.666667 1240.295,436" id="two_16261"></path>
            <path d="M88.297,440 C275.630333,343.333333 339.630333,273.333333 280.297,230 C467.630333,326.666667 531.630333,396.666667 472.297,440 C659.630333,343.333333 723.630333,273.333333 664.297,230 C851.630333,326.666667 915.630333,396.666667 856.297,440 C1043.63033,343.333333 1107.63033,273.333333 1048.297,230 C1235.63033,326.666667 1299.63033,396.666667 1240.297,440" id="two_16263"></path>
            <path d="M88.299,444 C274.965667,346.666667 338.965667,276.333333 280.299,233 C467.632333,329.666667 531.632333,400 472.299,444 C658.965667,346.666667 722.965667,276.333333 664.299,233 C851.632333,329.666667 915.632333,400 856.299,444 C1042.96567,346.666667 1106.96567,276.333333 1048.299,233 C1235.63233,329.666667 1299.63233,400 1240.299,444" id="two_16265"></path>
            <path d="M88.301,447 C274.967667,350.333333 338.967667,279.666667 280.301,235 C466.967667,331.666667 530.967667,402.333333 472.301,447 C658.967667,350.333333 722.967667,279.666667 664.301,235 C850.967667,331.666667 914.967667,402.333333 856.301,447 C1042.96767,350.333333 1106.96767,279.666667 1048.301,235 C1234.96767,331.666667 1298.96767,402.333333 1240.301,447" id="two_16267"></path>
            <path d="M88.302,451 C274.968667,353.666667 338.968667,282.333333 280.302,237 C466.968667,334.333333 530.968667,405.666667 472.302,451 C658.968667,353.666667 722.968667,282.333333 664.302,237 C850.968667,334.333333 914.968667,405.666667 856.302,451 C1042.96867,353.666667 1106.96867,282.333333 1048.302,237 C1234.96867,334.333333 1298.96867,405.666667 1240.302,451" id="two_16269"></path>
            <path d="M88.304,455 C274.970667,357 338.970667,285 280.304,239 C466.970667,337 530.970667,409 472.304,455 C658.970667,357 722.970667,285 664.304,239 C850.970667,337 914.970667,409 856.304,455 C1042.97067,357 1106.97067,285 1048.304,239 C1234.97067,337 1298.97067,409 1240.304,455" id="two_16271"></path>
            <path d="M87.306,460 C274.639333,360.666667 338.639333,287.333333 279.306,240 C466.639333,339.333333 530.639333,412.666667 471.306,460 C658.639333,360.666667 722.639333,287.333333 663.306,240 C850.639333,339.333333 914.639333,412.666667 855.306,460 C1042.63933,360.666667 1106.63933,287.333333 1047.306,240 C1234.63933,339.333333 1298.63933,412.666667 1239.306,460" id="two_16273"></path>
            <path d="M87.308,464 C275.308,364 339.308,290 279.308,242 C467.308,342 531.308,416 471.308,464 C659.308,364 723.308,290 663.308,242 C851.308,342 915.308,416 855.308,464 C1043.308,364 1107.308,290 1047.308,242 C1235.308,342 1299.308,416 1239.308,464" id="two_16275"></path>
            <path d="M86.31,468 C274.976667,366.666667 338.976667,292 278.31,244 C466.976667,345.333333 530.976667,420 470.31,468 C658.976667,366.666667 722.976667,292 662.31,244 C850.976667,345.333333 914.976667,420 854.31,468 C1042.97667,366.666667 1106.97667,292 1046.31,244 C1234.97667,345.333333 1298.97667,420 1238.31,468" id="two_16277"></path>
            <path d="M85.312,472 C274.645333,369.333333 338.645333,294 277.312,246 C466.645333,348.666667 530.645333,424 469.312,472 C658.645333,369.333333 722.645333,294 661.312,246 C850.645333,348.666667 914.645333,424 853.312,472 C1042.64533,369.333333 1106.64533,294 1045.312,246 C1234.64533,348.666667 1298.64533,424 1237.312,472" id="two_16279"></path>
            <path d="M84.314,476 C273.647333,372.666667 337.647333,296.666667 276.314,248 C465.647333,351.333333 529.647333,427.333333 468.314,476 C657.647333,372.666667 721.647333,296.666667 660.314,248 C849.647333,351.333333 913.647333,427.333333 852.314,476 C1041.64733,372.666667 1105.64733,296.666667 1044.314,248 C1233.64733,351.333333 1297.64733,427.333333 1236.314,476" id="two_16281"></path>
            <path d="M83.316,481 C273.316,375.666667 337.316,298.333333 275.316,249 C465.316,354.333333 529.316,431.666667 467.316,481 C657.316,375.666667 721.316,298.333333 659.316,249 C849.316,354.333333 913.316,431.666667 851.316,481 C1041.316,375.666667 1105.316,298.333333 1043.316,249 C1233.316,354.333333 1297.316,431.666667 1235.316,481" id="two_16283"></path>
            <path d="M82.318,485 C272.318,379 336.318,301 274.318,251 C464.318,357 528.318,435 466.318,485 C656.318,379 720.318,301 658.318,251 C848.318,357 912.318,435 850.318,485 C1040.318,379 1104.318,301 1042.318,251 C1232.318,357 1296.318,435 1234.318,485" id="two_16285"></path>
            <path d="M80.32,489 C271.653333,382.333333 335.653333,303.666667 272.32,253 C463.653333,359.666667 527.653333,438.333333 464.32,489 C655.653333,382.333333 719.653333,303.666667 656.32,253 C847.653333,359.666667 911.653333,438.333333 848.32,489 C1039.65333,382.333333 1103.65333,303.666667 1040.32,253 C1231.65333,359.666667 1295.65333,438.333333 1232.32,489" id="two_16287"></path>
            <path d="M79.321,493 C270.654333,386.333333 334.654333,307 271.321,255 C462.654333,361.666667 526.654333,441 463.321,493 C654.654333,386.333333 718.654333,307 655.321,255 C846.654333,361.666667 910.654333,441 847.321,493 C1038.65433,386.333333 1102.65433,307 1039.321,255 C1230.65433,361.666667 1294.65433,441 1231.321,493" id="two_16289"></path>
            <path d="M77.323,497 C269.989667,389.666667 333.989667,309.666667 269.323,257 C461.989667,364.333333 525.989667,444.333333 461.323,497 C653.989667,389.666667 717.989667,309.666667 653.323,257 C845.989667,364.333333 909.989667,444.333333 845.323,497 C1037.98967,389.666667 1101.98967,309.666667 1037.323,257 C1229.98967,364.333333 1293.98967,444.333333 1229.323,497" id="two_16291"></path>
            <path d="M75.325,500 C269.991667,392.666667 333.991667,312.666667 267.325,260 C461.991667,367.333333 525.991667,447.333333 459.325,500 C653.991667,392.666667 717.991667,312.666667 651.325,260 C845.991667,367.333333 909.991667,447.333333 843.325,500 C1037.99167,392.666667 1101.99167,312.666667 1035.325,260 C1229.99167,367.333333 1293.99167,447.333333 1227.325,500" id="two_16293"></path>
            <path d="M74.327,504 C269.660333,396 333.660333,315.333333 266.327,262 C461.660333,370 525.660333,450.666667 458.327,504 C653.660333,396 717.660333,315.333333 650.327,262 C845.660333,370 909.660333,450.666667 842.327,504 C1037.66033,396 1101.66033,315.333333 1034.327,262 C1229.66033,370 1293.66033,450.666667 1226.327,504" id="two_16295"></path>
            <path d="M72.329,508 C268.995667,399.333333 332.995667,318 264.329,264 C460.995667,372.666667 524.995667,454 456.329,508 C652.995667,399.333333 716.995667,318 648.329,264 C844.995667,372.666667 908.995667,454 840.329,508 C1036.99567,399.333333 1100.99567,318 1032.329,264 C1228.99567,372.666667 1292.99567,454 1224.329,508" id="two_16297"></path>
            <path d="M70.33,511 C268.33,401.666667 332.33,320.333333 262.33,267 C460.33,376.333333 524.33,457.666667 454.33,511 C652.33,401.666667 716.33,320.333333 646.33,267 C844.33,376.333333 908.33,457.666667 838.33,511 C1036.33,401.666667 1100.33,320.333333 1030.33,267 C1228.33,376.333333 1292.33,457.666667 1222.33,511" id="two_16299"></path>
            <path d="M68.332,515 C267.665333,404.333333 331.665333,322.333333 260.332,269 C459.665333,379.666667 523.665333,461.666667 452.332,515 C651.665333,404.333333 715.665333,322.333333 644.332,269 C843.665333,379.666667 907.665333,461.666667 836.332,515 C1035.66533,404.333333 1099.66533,322.333333 1028.332,269 C1227.66533,379.666667 1291.66533,461.666667 1220.332,515" id="two_16301"></path>
            <path d="M67.334,518 C267.334,407.333333 331.334,325.333333 259.334,272 C459.334,382.666667 523.334,464.666667 451.334,518 C651.334,407.333333 715.334,325.333333 643.334,272 C843.334,382.666667 907.334,464.666667 835.334,518 C1035.334,407.333333 1099.334,325.333333 1027.334,272 C1227.334,382.666667 1291.334,464.666667 1219.334,518" id="two_16303"></path>
            <path d="M65.336,522 C266.002667,410.666667 330.002667,328 257.336,274 C458.002667,385.333333 522.002667,468 449.336,522 C650.002667,410.666667 714.002667,328 641.336,274 C842.002667,385.333333 906.002667,468 833.336,522 C1034.00267,410.666667 1098.00267,328 1025.336,274 C1226.00267,385.333333 1290.00267,468 1217.336,522" id="two_16305"></path>
            <path d="M62.337,524 C264.337,412.666667 328.337,330.666667 254.337,278 C456.337,389.333333 520.337,471.333333 446.337,524 C648.337,412.666667 712.337,330.666667 638.337,278 C840.337,389.333333 904.337,471.333333 830.337,524 C1032.337,412.666667 1096.337,330.666667 1022.337,278 C1224.337,389.333333 1288.337,471.333333 1214.337,524" id="two_16307"></path>
            <path d="M60.339,527 C263.672333,416.333333 327.672333,334.333333 252.339,281 C455.672333,391.666667 519.672333,473.666667 444.339,527 C647.672333,416.333333 711.672333,334.333333 636.339,281 C839.672333,391.666667 903.672333,473.666667 828.339,527 C1031.67233,416.333333 1095.67233,334.333333 1020.339,281 C1223.67233,391.666667 1287.67233,473.666667 1212.339,527" id="two_16309"></path>
            <path d="M58.341,531 C263.007667,419.666667 327.007667,337 250.341,283 C455.007667,394.333333 519.007667,477 442.341,531 C647.007667,419.666667 711.007667,337 634.341,283 C839.007667,394.333333 903.007667,477 826.341,531 C1031.00767,419.666667 1095.00767,337 1018.341,283 C1223.00767,394.333333 1287.00767,477 1210.341,531" id="two_16311"></path>
            <path d="M56.343,533 C262.343,422.333333 326.343,340.333333 248.343,287 C454.343,397.666667 518.343,479.666667 440.343,533 C646.343,422.333333 710.343,340.333333 632.343,287 C838.343,397.666667 902.343,479.666667 824.343,533 C1030.343,422.333333 1094.343,340.333333 1016.343,287 C1222.343,397.666667 1286.343,479.666667 1208.343,533" id="two_16313"></path>
            <path d="M53.344,536 C261.344,425.333333 325.344,343.333333 245.344,290 C453.344,400.666667 517.344,482.666667 437.344,536 C645.344,425.333333 709.344,343.333333 629.344,290 C837.344,400.666667 901.344,482.666667 821.344,536 C1029.344,425.333333 1093.344,343.333333 1013.344,290 C1221.344,400.666667 1285.344,482.666667 1205.344,536" id="two_16315"></path>
            <path d="M50.346,539 C260.346,428.333333 324.346,346.333333 242.346,293 C452.346,403.666667 516.346,485.666667 434.346,539 C644.346,428.333333 708.346,346.333333 626.346,293 C836.346,403.666667 900.346,485.666667 818.346,539 C1028.346,428.333333 1092.346,346.333333 1010.346,293 C1220.346,403.666667 1284.346,485.666667 1202.346,539" id="two_16317"></path>
            <path d="M48.348,542 C260.348,431.333333 324.348,349.333333 240.348,296 C452.348,406.666667 516.348,488.666667 432.348,542 C644.348,431.333333 708.348,349.333333 624.348,296 C836.348,406.666667 900.348,488.666667 816.348,542 C1028.348,431.333333 1092.348,349.333333 1008.348,296 C1220.348,406.666667 1284.348,488.666667 1200.348,542" id="two_16319"></path>
            <path d="M46.349,545 C259.682333,433.666667 323.682333,351.666667 238.349,299 C451.682333,410.333333 515.682333,492.333333 430.349,545 C643.682333,433.666667 707.682333,351.666667 622.349,299 C835.682333,410.333333 899.682333,492.333333 814.349,545 C1027.68233,433.666667 1091.68233,351.666667 1006.349,299 C1219.68233,410.333333 1283.68233,492.333333 1198.349,545" id="two_16321"></path>
            <path d="M43.351,548 C258.684333,436.666667 322.684333,354.666667 235.351,302 C450.684333,413.333333 514.684333,495.333333 427.351,548 C642.684333,436.666667 706.684333,354.666667 619.351,302 C834.684333,413.333333 898.684333,495.333333 811.351,548 C1026.68433,436.666667 1090.68433,354.666667 1003.351,302 C1218.68433,413.333333 1282.68433,495.333333 1195.351,548" id="two_16323"></path>
            <path d="M41.353,551 C257.353,439 321.353,357 233.353,305 C449.353,417 513.353,499 425.353,551 C641.353,439 705.353,357 617.353,305 C833.353,417 897.353,499 809.353,551 C1025.353,439 1089.353,357 1001.353,305 C1217.353,417 1281.353,499 1193.353,551" id="two_16325"></path>
            <path d="M39.354,554 C256.687333,442 320.687333,360 231.354,308 C448.687333,420 512.687333,502 423.354,554 C640.687333,442 704.687333,360 615.354,308 C832.687333,420 896.687333,502 807.354,554 C1024.68733,442 1088.68733,360 999.354,308 C1216.68733,420 1280.68733,502 1191.354,554" id="two_16327"></path>
            <path d="M38.356,556 C255.689333,444.666667 319.689333,363.333333 230.356,312 C447.689333,423.333333 511.689333,504.666667 422.356,556 C639.689333,444.666667 703.689333,363.333333 614.356,312 C831.689333,423.333333 895.689333,504.666667 806.356,556 C1023.68933,444.666667 1087.68933,363.333333 998.356,312 C1215.68933,423.333333 1279.68933,504.666667 1190.356,556" id="two_16329"></path>
            <path d="M36.358,558 C254.358,447.333333 318.358,366.666667 228.358,316 C446.358,426.666667 510.358,507.333333 420.358,558 C638.358,447.333333 702.358,366.666667 612.358,316 C830.358,426.666667 894.358,507.333333 804.358,558 C1022.358,447.333333 1086.358,366.666667 996.358,316 C1214.358,426.666667 1278.358,507.333333 1188.358,558" id="two_16331"></path>
            <path d="M34.359,559 C253.692333,449.666667 317.692333,370.333333 226.359,321 C445.692333,430.333333 509.692333,509.666667 418.359,559 C637.692333,449.666667 701.692333,370.333333 610.359,321 C829.692333,430.333333 893.692333,509.666667 802.359,559 C1021.69233,449.666667 1085.69233,370.333333 994.359,321 C1213.69233,430.333333 1277.69233,509.666667 1186.359,559" id="two_16333"></path>
            <path d="M32.361,561 C253.027667,453 317.027667,374.333333 224.361,325 C445.027667,433.666667 509.027667,512.333333 416.361,561 C637.027667,453 701.027667,374.333333 608.361,325 C829.027667,433.666667 893.027667,512.333333 800.361,561 C1021.02767,453 1085.02767,374.333333 992.361,325 C1213.02767,433.666667 1277.02767,512.333333 1184.361,561" id="two_16335"></path>
            <path d="M30.363,562 C252.363,455.333333 316.363,378 222.363,330 C444.363,436.666667 508.363,514 414.363,562 C636.363,455.333333 700.363,378 606.363,330 C828.363,436.666667 892.363,514 798.363,562 C1020.363,455.333333 1084.363,378 990.363,330 C1212.363,436.666667 1276.363,514 1182.363,562" id="two_16337"></path>
            <path d="M27.364,565 C251.364,458.333333 315.364,381.333333 219.364,334 C443.364,440 507.364,517 411.364,565 C635.364,458.333333 699.364,381.333333 603.364,334 C827.364,440 891.364,517 795.364,565 C1019.364,458.333333 1083.364,381.333333 987.364,334 C1211.364,440 1275.364,517 1179.364,565" id="two_16339"></path>
            <path d="M25.366,567 C251.366,461 315.366,384.333333 217.366,337 C443.366,443 507.366,519.666667 409.366,567 C635.366,461 699.366,384.333333 601.366,337 C827.366,443 891.366,519.666667 793.366,567 C1019.366,461 1083.366,384.333333 985.366,337 C1211.366,443 1275.366,519.666667 1177.366,567" id="two_16341"></path>
            <path d="M23.368,569 C250.701333,463 314.701333,387 215.368,341 C442.701333,447 506.701333,523 407.368,569 C634.701333,463 698.701333,387 599.368,341 C826.701333,447 890.701333,523 791.368,569 C1018.70133,463 1082.70133,387 983.368,341 C1210.70133,447 1274.70133,523 1175.368,569" id="two_16343"></path>
            <path d="M21.369,571 C250.035667,465.666667 314.035667,390.333333 213.369,345 C442.035667,450.333333 506.035667,525.666667 405.369,571 C634.035667,465.666667 698.035667,390.333333 597.369,345 C826.035667,450.333333 890.035667,525.666667 789.369,571 C1018.03567,465.666667 1082.03567,390.333333 981.369,345 C1210.03567,450.333333 1274.03567,525.666667 1173.369,571" id="two_16345"></path>
            <path d="M20.371,573 C249.704333,467.666667 313.704333,393 212.371,349 C441.704333,454.333333 505.704333,529 404.371,573 C633.704333,467.666667 697.704333,393 596.371,349 C825.704333,454.333333 889.704333,529 788.371,573 C1017.70433,467.666667 1081.70433,393 980.371,349 C1209.70433,454.333333 1273.70433,529 1172.371,573" id="two_16347"></path>
            <path d="M19.372,573 C248.705333,469.666667 312.705333,397 211.372,355 C440.705333,458.333333 504.705333,531 403.372,573 C632.705333,469.666667 696.705333,397 595.372,355 C824.705333,458.333333 888.705333,531 787.372,573 C1016.70533,469.666667 1080.70533,397 979.372,355 C1208.70533,458.333333 1272.70533,531 1171.372,573" id="two_16349"></path>
            <path d="M17.374,574 C248.040667,471.333333 312.040667,400 209.374,360 C440.040667,462.666667 504.040667,534 401.374,574 C632.040667,471.333333 696.040667,400 593.374,360 C824.040667,462.666667 888.040667,534 785.374,574 C1016.04067,471.333333 1080.04067,400 977.374,360 C1208.04067,462.666667 1272.04067,534 1169.374,574" id="two_16351"></path>
            <path d="M15.375,575 C246.708333,473.666667 310.708333,403.666667 207.375,365 C438.708333,466.333333 502.708333,536.333333 399.375,575 C630.708333,473.666667 694.708333,403.666667 591.375,365 C822.708333,466.333333 886.708333,536.333333 783.375,575 C1014.70833,473.666667 1078.70833,403.666667 975.375,365 C1206.70833,466.333333 1270.70833,536.333333 1167.375,575" id="two_16353"></path>
            <path d="M13.377,577 C246.043667,476.333333 310.043667,407 205.377,369 C438.043667,469.666667 502.043667,539 397.377,577 C630.043667,476.333333 694.043667,407 589.377,369 C822.043667,469.666667 886.043667,539 781.377,577 C1014.04367,476.333333 1078.04367,407 973.377,369 C1206.04367,469.666667 1270.04367,539 1165.377,577" id="two_16355"></path>
            <path d="M11.378,579 C244.711333,479 308.711333,410.333333 203.378,373 C436.711333,473 500.711333,541.666667 395.378,579 C628.711333,479 692.711333,410.333333 587.378,373 C820.711333,473 884.711333,541.666667 779.378,579 C1012.71133,479 1076.71133,410.333333 971.378,373 C1204.71133,473 1268.71133,541.666667 1163.378,579" id="two_16357"></path>
            <path d="M11.38,581 C244.713333,482.333333 308.713333,414.333333 203.38,377 C436.713333,475.666667 500.713333,543.666667 395.38,581 C628.713333,482.333333 692.713333,414.333333 587.38,377 C820.713333,475.666667 884.713333,543.666667 779.38,581 C1012.71333,482.333333 1076.71333,414.333333 971.38,377 C1204.71333,475.666667 1268.71333,543.666667 1163.38,581" id="two_16359"></path>
            <path d="M11.382,582 C244.715333,484.666667 308.382,418 202.382,382 C436.382,479.333333 500.715333,546 395.382,582 C628.715333,484.666667 692.382,418 586.382,382 C820.382,479.333333 884.715333,546 779.382,582 C1012.71533,484.666667 1076.382,418 970.382,382 C1204.382,479.333333 1268.71533,546 1163.382,582" id="two_16361"></path>
            <path d="M9.383,582 C244.049667,486.666667 308.049667,422 201.383,388 C436.049667,483.333333 500.049667,548 393.383,582 C628.049667,486.666667 692.049667,422 585.383,388 C820.049667,483.333333 884.049667,548 777.383,582 C1012.04967,486.666667 1076.04967,422 969.383,388 C1204.04967,483.333333 1268.04967,548 1161.383,582" id="two_16363"></path>
            <path d="M7.385,583 C244.051667,489 308.051667,425.666667 199.385,393 C436.051667,487 500.051667,550.333333 391.385,583 C628.051667,489 692.051667,425.666667 583.385,393 C820.051667,487 884.051667,550.333333 775.385,583 C1012.05167,489 1076.05167,425.666667 967.385,393 C1204.05167,487 1268.05167,550.333333 1159.385,583" id="two_16365"></path>
            <path d="M6.386,584 C243.719333,491.333333 307.719333,429.333333 198.386,398 C435.719333,490.666667 499.719333,552.666667 390.386,584 C627.719333,491.333333 691.719333,429.333333 582.386,398 C819.719333,490.666667 883.719333,552.666667 774.386,584 C1011.71933,491.333333 1075.71933,429.333333 966.386,398 C1203.71933,490.666667 1267.71933,552.666667 1158.386,584" id="two_16367"></path>
            <path d="M5.388,586 C243.388,493.333333 307.388,432 197.388,402 C435.388,494.666667 499.388,556 389.388,586 C627.388,493.333333 691.388,432 581.388,402 C819.388,494.666667 883.388,556 773.388,586 C1011.388,493.333333 1075.388,432 965.388,402 C1203.388,494.666667 1267.388,556 1157.388,586" id="two_16369"></path>
            <path d="M5.389,588 C243.389,496 307.389,435.333333 197.389,406 C435.389,498 499.389,558.666667 389.389,588 C627.389,496 691.389,435.333333 581.389,406 C819.389,498 883.389,558.666667 773.389,588 C1011.389,496 1075.389,435.333333 965.389,406 C1203.389,498 1267.389,558.666667 1157.389,588" id="two_16371"></path>
            <path d="M5.391,588 C243.391,497.333333 307.391,438.666667 197.391,412 C435.391,502.666667 499.391,561.333333 389.391,588 C627.391,497.333333 691.391,438.666667 581.391,412 C819.391,502.666667 883.391,561.333333 773.391,588 C1011.391,497.333333 1075.391,438.666667 965.391,412 C1203.391,502.666667 1267.391,561.333333 1157.391,588" id="two_16373"></path>
            <path d="M4.392,588 C243.058667,499.333333 307.058667,442.666667 196.392,418 C435.058667,506.666667 499.058667,563.333333 388.392,588 C627.058667,499.333333 691.058667,442.666667 580.392,418 C819.058667,506.666667 883.058667,563.333333 772.392,588 C1011.05867,499.333333 1075.05867,442.666667 964.392,418 C1203.05867,506.666667 1267.05867,563.333333 1156.392,588" id="two_16375"></path>
            <path d="M2.393,589 C241.726333,501.666667 305.726333,446.333333 194.393,423 C433.726333,510.333333 497.726333,565.666667 386.393,589 C625.726333,501.666667 689.726333,446.333333 578.393,423 C817.726333,510.333333 881.726333,565.666667 770.393,589 C1009.72633,501.666667 1073.72633,446.333333 962.393,423 C1201.72633,510.333333 1265.72633,565.666667 1154.393,589" id="two_16377"></path>
            <path d="M1.395,591 C241.395,504.333333 305.395,449.666667 193.395,427 C433.395,513.666667 497.395,568.333333 385.395,591 C625.395,504.333333 689.395,449.666667 577.395,427 C817.395,513.666667 881.395,568.333333 769.395,591 C1009.395,504.333333 1073.395,449.666667 961.395,427 C1201.395,513.666667 1265.395,568.333333 1153.395,591" id="two_16379"></path>
            <path d="M2.396,593 C241.062667,507 305.062667,453 194.396,431 C433.062667,517 497.062667,571 386.396,593 C625.062667,507 689.062667,453 578.396,431 C817.062667,517 881.062667,571 770.396,593 C1009.06267,507 1073.06267,453 962.396,431 C1201.06267,517 1265.06267,571 1154.396,593" id="two_16381"></path>
            <path d="M2.398,594 C241.064667,509.333333 305.064667,456.666667 194.398,436 C433.064667,520.666667 497.064667,573.333333 386.398,594 C625.064667,509.333333 689.064667,456.666667 578.398,436 C817.064667,520.666667 881.064667,573.333333 770.398,594 C1009.06467,509.333333 1073.06467,456.666667 962.398,436 C1201.06467,520.666667 1265.06467,573.333333 1154.398,594" id="two_16383"></path>
            <path d="M2.399,594 C240.399,511.333333 304.399,460.666667 194.399,442 C432.399,524.666667 496.399,575.333333 386.399,594 C624.399,511.333333 688.399,460.666667 578.399,442 C816.399,524.666667 880.399,575.333333 770.399,594 C1008.399,511.333333 1072.399,460.666667 962.399,442 C1200.399,524.666667 1264.399,575.333333 1154.399,594" id="two_16385"></path>
            <path d="M0.401,595 C240.401,513.666667 304.401,464.333333 192.401,447 C432.401,528.333333 496.401,577.666667 384.401,595 C624.401,513.666667 688.401,464.333333 576.401,447 C816.401,528.333333 880.401,577.666667 768.401,595 C1008.401,513.666667 1072.401,464.333333 960.401,447 C1200.401,528.333333 1264.401,577.666667 1152.401,595" id="two_16387"></path>
            <path d="M0.402,598 C240.402,517.333333 304.402,468.333333 192.402,451 C432.402,531 496.402,580 384.402,598 C624.402,517.333333 688.402,468.333333 576.402,451 C816.402,531 880.402,580 768.402,598 C1008.402,517.333333 1072.402,468.333333 960.402,451 C1200.402,531 1264.402,580 1152.402,598" id="two_16389"></path>
            <path d="M1.404,599 C240.737333,519.666667 304.737333,471.666667 193.404,455 C432.737333,534.333333 496.737333,582.333333 385.404,599 C624.737333,519.666667 688.737333,471.666667 577.404,455 C816.737333,534.333333 880.737333,582.333333 769.404,599 C1008.73733,519.666667 1072.73733,471.666667 961.404,455 C1200.73733,534.333333 1264.73733,582.333333 1153.404,599" id="two_16391"></path>
            <path d="M1.405,599 C240.738333,521.666667 304.738333,475.666667 193.405,461 C432.738333,538.333333 496.738333,584.333333 385.405,599 C624.738333,521.666667 688.738333,475.666667 577.405,461 C816.738333,538.333333 880.738333,584.333333 769.405,599 C1008.73833,521.666667 1072.73833,475.666667 961.405,461 C1200.73833,538.333333 1264.73833,584.333333 1153.405,599" id="two_16393"></path>
            <path d="M0.406,600 C240.406,523.333333 304.406,478.666667 192.406,466 C432.406,542.666667 496.406,587.333333 384.406,600 C624.406,523.333333 688.406,478.666667 576.406,466 C816.406,542.666667 880.406,587.333333 768.406,600 C1008.406,523.333333 1072.406,478.666667 960.406,466 C1200.406,542.666667 1264.406,587.333333 1152.406,600" id="two_16395"></path>
            <path d="M0.408,602 C240.408,526 304.408,482 192.408,470 C432.408,546 496.408,590 384.408,602 C624.408,526 688.408,482 576.408,470 C816.408,546 880.408,590 768.408,602 C1008.408,526 1072.408,482 960.408,470 C1200.408,546 1264.408,590 1152.408,602" id="two_16397"></path>
            <path d="M1.409,604 C240.742333,528 304.742333,484.666667 193.409,474 C432.742333,550 496.742333,593.333333 385.409,604 C624.742333,528 688.742333,484.666667 577.409,474 C816.742333,550 880.742333,593.333333 769.409,604 C1008.74233,528 1072.74233,484.666667 961.409,474 C1200.74233,550 1264.74233,593.333333 1153.409,604" id="two_16399"></path>
            <path d="M2.411,605 C241.077667,530.333333 305.077667,488.333333 194.411,479 C433.077667,553.666667 497.077667,595.666667 386.411,605 C625.077667,530.333333 689.077667,488.333333 578.411,479 C817.077667,553.666667 881.077667,595.666667 770.411,605 C1009.07767,530.333333 1073.07767,488.333333 962.411,479 C1201.07767,553.666667 1265.07767,595.666667 1154.411,605" id="two_16401"></path>
            <path d="M2.412,605 C241.078667,531.666667 305.078667,491.666667 194.412,485 C433.078667,558.333333 497.078667,598.333333 386.412,605 C625.078667,531.666667 689.078667,491.666667 578.412,485 C817.078667,558.333333 881.078667,598.333333 770.412,605 C1009.07867,531.666667 1073.07867,491.666667 962.412,485 C1201.07867,558.333333 1265.07867,598.333333 1154.412,605" id="two_16403"></path>
            <path d="M1.413,607 C240.079667,534.333333 304.079667,495 193.413,489 C432.079667,561.666667 496.079667,601 385.413,607 C624.079667,534.333333 688.079667,495 577.413,489 C816.079667,561.666667 880.079667,601 769.413,607 C1008.07967,534.333333 1072.07967,495 961.413,489 C1200.07967,561.666667 1264.07967,601 1153.413,607" id="two_16405"></path>
            <path d="M2.415,610 C240.415,537.333333 304.415,498 194.415,492 C432.415,564.666667 496.415,604 386.415,610 C624.415,537.333333 688.415,498 578.415,492 C816.415,564.666667 880.415,604 770.415,610 C1008.415,537.333333 1072.415,498 962.415,492 C1200.415,564.666667 1264.415,604 1154.415,610" id="two_16407"></path>
            <path d="M3.416,611 C240.082667,539.666667 304.082667,501.666667 195.416,497 C432.082667,568.333333 496.082667,606.333333 387.416,611 C624.082667,539.666667 688.082667,501.666667 579.416,497 C816.082667,568.333333 880.082667,606.333333 771.416,611 C1008.08267,539.666667 1072.08267,501.666667 963.416,497 C1200.08267,568.333333 1264.08267,606.333333 1155.416,611" id="two_16409"></path>
            <path d="M3.417,611 C240.083667,542.333333 304.083667,506.333333 195.417,503 C432.083667,571.666667 496.083667,607.666667 387.417,611 C624.083667,542.333333 688.083667,506.333333 579.417,503 C816.083667,571.666667 880.083667,607.666667 771.417,611 C1008.08367,542.333333 1072.08367,506.333333 963.417,503 C1200.08367,571.666667 1264.08367,607.666667 1155.417,611" id="two_16411"></path>
            <path d="M3.419,614 C240.085667,545.333333 304.085667,509.333333 195.419,506 C432.085667,574.666667 496.085667,610.666667 387.419,614 C624.085667,545.333333 688.085667,509.333333 579.419,506 C816.085667,574.666667 880.085667,610.666667 771.419,614 C1008.08567,545.333333 1072.08567,509.333333 963.419,506 C1200.08567,574.666667 1264.08567,610.666667 1155.419,614" id="two_16413"></path>
            <path d="M4.42,616 C240.42,548 304.42,512.666667 196.42,510 C432.42,578 496.42,613.333333 388.42,616 C624.42,548 688.42,512.666667 580.42,510 C816.42,578 880.42,613.333333 772.42,616 C1008.42,548 1072.42,512.666667 964.42,510 C1200.42,578 1264.42,613.333333 1156.42,616" id="two_16415"></path>
            <path d="M6.421,617 C241.087667,550.333333 305.087667,516.333333 198.421,515 C433.087667,581.666667 497.087667,615.666667 390.421,617 C625.087667,550.333333 689.087667,516.333333 582.421,515 C817.087667,581.666667 881.087667,615.666667 774.421,617 C1009.08767,550.333333 1073.08767,516.333333 966.421,515 C1201.08767,581.666667 1265.08767,615.666667 1158.421,617" id="two_16417"></path>
            <path d="M5.423,618 C240.756333,552.666667 304.756333,520 197.423,520 C432.756333,585.333333 496.756333,618 389.423,618 C624.756333,552.666667 688.756333,520 581.423,520 C816.756333,585.333333 880.756333,618 773.423,618 C1008.75633,552.666667 1072.75633,520 965.423,520 C1200.75633,585.333333 1264.75633,618 1157.423,618" id="two_16419"></path>
            <path d="M5.424,621 C240.757333,555.666667 304.757333,523 197.424,523 C432.757333,588.333333 496.757333,621 389.424,621 C624.757333,555.666667 688.757333,523 581.424,523 C816.757333,588.333333 880.757333,621 773.424,621 C1008.75733,555.666667 1072.75733,523 965.424,523 C1200.75733,588.333333 1264.75733,621 1157.424,621" id="two_16421"></path>
            <path d="M7.425,623 C242.091667,558.333333 306.091667,526.333333 199.425,527 C434.091667,591.666667 498.091667,623.666667 391.425,623 C626.091667,558.333333 690.091667,526.333333 583.425,527 C818.091667,591.666667 882.091667,623.666667 775.425,623 C1010.09167,558.333333 1074.09167,526.333333 967.425,527 C1202.09167,591.666667 1266.09167,623.666667 1159.425,623" id="two_16423"></path>
            <path d="M8.427,624 C242.427,560.666667 306.427,530 200.427,532 C434.427,595.333333 498.427,626 392.427,624 C626.427,560.666667 690.427,530 584.427,532 C818.427,595.333333 882.427,626 776.427,624 C1010.427,560.666667 1074.427,530 968.427,532 C1202.427,595.333333 1266.427,626 1160.427,624" id="two_16425"></path>
            <path d="M7.428,626 C242.094667,562.666667 306.094667,532.666667 199.428,536 C434.094667,599.333333 498.094667,629.333333 391.428,626 C626.094667,562.666667 690.094667,532.666667 583.428,536 C818.094667,599.333333 882.094667,629.333333 775.428,626 C1010.09467,562.666667 1074.09467,532.666667 967.428,536 C1202.09467,599.333333 1266.09467,629.333333 1159.428,626" id="two_16427"></path>
            <path d="M8.429,629 C242.429,565.666667 306.429,535.666667 200.429,539 C434.429,602.333333 498.429,632.333333 392.429,629 C626.429,565.666667 690.429,535.666667 584.429,539 C818.429,602.333333 882.429,632.333333 776.429,629 C1010.429,565.666667 1074.429,535.666667 968.429,539 C1202.429,602.333333 1266.429,632.333333 1160.429,629" id="two_16429"></path>
            <path d="M10.431,631 C242.431,567.666667 306.431,538.333333 202.431,543 C434.431,606.333333 498.431,635.666667 394.431,631 C626.431,567.666667 690.431,538.333333 586.431,543 C818.431,606.333333 882.431,635.666667 778.431,631 C1010.431,567.666667 1074.431,538.333333 970.431,543 C1202.431,606.333333 1266.431,635.666667 1162.431,631" id="two_16431"></path>
            <path d="M10.432,632 C242.432,570 306.432,542 202.432,548 C434.432,610 498.432,638 394.432,632 C626.432,570 690.432,542 586.432,548 C818.432,610 882.432,638 778.432,632 C1010.432,570 1074.432,542 970.432,548 C1202.432,610 1266.432,638 1162.432,632" id="two_16433"></path>
            <path d="M10.433,636 C241.766333,573.333333 305.766333,544.666667 202.433,550 C433.766333,612.666667 497.766333,641.333333 394.433,636 C625.766333,573.333333 689.766333,544.666667 586.433,550 C817.766333,612.666667 881.766333,641.333333 778.433,636 C1009.76633,573.333333 1073.76633,544.666667 970.433,550 C1201.76633,612.666667 1265.76633,641.333333 1162.433,636" id="two_16435"></path>
            <path d="M12.434,638 C242.434,576 306.434,548 204.434,554 C434.434,616 498.434,644 396.434,638 C626.434,576 690.434,548 588.434,554 C818.434,616 882.434,644 780.434,638 C1010.434,576 1074.434,548 972.434,554 C1202.434,616 1266.434,644 1164.434,638" id="two_16437"></path>
            <path d="M13.436,639 C242.102667,578.333333 306.102667,551.666667 205.436,559 C434.102667,619.666667 498.102667,646.333333 397.436,639 C626.102667,578.333333 690.102667,551.666667 589.436,559 C818.102667,619.666667 882.102667,646.333333 781.436,639 C1010.10267,578.333333 1074.10267,551.666667 973.436,559 C1202.10267,619.666667 1266.10267,646.333333 1165.436,639" id="two_16439"></path>
            <path d="M12.437,642 C241.770333,581.333333 305.770333,554.666667 204.437,562 C433.770333,622.666667 497.770333,649.333333 396.437,642 C625.770333,581.333333 689.770333,554.666667 588.437,562 C817.770333,622.666667 881.770333,649.333333 780.437,642 C1009.77033,581.333333 1073.77033,554.666667 972.437,562 C1201.77033,622.666667 1265.77033,649.333333 1164.437,642" id="two_16441"></path>
            <path d="M14.438,645 C242.438,585 306.438,558.333333 206.438,565 C434.438,625 498.438,651.666667 398.438,645 C626.438,585 690.438,558.333333 590.438,565 C818.438,625 882.438,651.666667 782.438,645 C1010.438,585 1074.438,558.333333 974.438,565 C1202.438,625 1266.438,651.666667 1166.438,645" id="two_16443"></path>
            <path d="M15.44,646 C242.773333,587.333333 306.773333,562 207.44,570 C434.773333,628.666667 498.773333,654 399.44,646 C626.773333,587.333333 690.773333,562 591.44,570 C818.773333,628.666667 882.773333,654 783.44,646 C1010.77333,587.333333 1074.77333,562 975.44,570 C1202.77333,628.666667 1266.77333,654 1167.44,646" id="two_16445"></path>
            <path d="M14.441,649 C242.441,590.333333 306.774333,565 207.441,573 C434.774333,631.666667 498.441,657 398.441,649 C626.441,590.333333 690.774333,565 591.441,573 C818.774333,631.666667 882.441,657 782.441,649 C1010.441,590.333333 1074.77433,565 975.441,573 C1202.77433,631.666667 1266.441,657 1166.441,649" id="two_16447"></path>
            <path d="M16.442,653 C243.108667,593.666667 307.108667,567.666667 208.442,575 C435.108667,634.333333 499.108667,660.333333 400.442,653 C627.108667,593.666667 691.108667,567.666667 592.442,575 C819.108667,634.333333 883.108667,660.333333 784.442,653 C1011.10867,593.666667 1075.10867,567.666667 976.442,575 C1203.10867,634.333333 1267.10867,660.333333 1168.442,653" id="two_16449"></path>
            <path d="M18.443,655 C244.443,596.333333 308.443,571 210.443,579 C436.443,637.666667 500.443,663 402.443,655 C628.443,596.333333 692.443,571 594.443,579 C820.443,637.666667 884.443,663 786.443,655 C1012.443,596.333333 1076.443,571 978.443,579 C1204.443,637.666667 1268.443,663 1170.443,655" id="two_16451"></path>
            <path d="M17.444,657 C244.110667,599 308.110667,574.333333 209.444,583 C436.110667,641 500.110667,665.666667 401.444,657 C628.110667,599 692.110667,574.333333 593.444,583 C820.110667,641 884.110667,665.666667 785.444,657 C1012.11067,599 1076.11067,574.333333 977.444,583 C1204.11067,641 1268.11067,665.666667 1169.444,657" id="two_16453"></path>
            <path d="M18.446,661 C244.446,601.666667 308.446,576.333333 210.446,585 C436.446,644.333333 500.446,669.666667 402.446,661 C628.446,601.666667 692.446,576.333333 594.446,585 C820.446,644.333333 884.446,669.666667 786.446,661 C1012.446,601.666667 1076.446,576.333333 978.446,585 C1204.446,644.333333 1268.446,669.666667 1170.446,661" id="two_16455"></path>
            <path d="M19.447,663 C244.780333,604.333333 309.113667,579.666667 212.447,589 C437.113667,647.666667 500.780333,672.333333 403.447,663 C628.780333,604.333333 693.113667,579.666667 596.447,589 C821.113667,647.666667 884.780333,672.333333 787.447,663 C1012.78033,604.333333 1077.11367,579.666667 980.447,589 C1205.11367,647.666667 1268.78033,672.333333 1171.447,663" id="two_16457"></path>
            <path d="M18.448,665 C244.448,607 308.448,583 210.448,593 C436.448,651 500.448,675 402.448,665 C628.448,607 692.448,583 594.448,593 C820.448,651 884.448,675 786.448,665 C1012.448,607 1076.448,583 978.448,593 C1204.448,651 1268.448,675 1170.448,665" id="two_16459"></path>
            <path d="M20.449,670 C245.115667,610 309.115667,584.666667 212.449,594 C437.115667,654 501.115667,679.333333 404.449,670 C629.115667,610 693.115667,584.666667 596.449,594 C821.115667,654 885.115667,679.333333 788.449,670 C1013.11567,610 1077.11567,584.666667 980.449,594 C1205.11567,654 1269.11567,679.333333 1172.449,670" id="two_16461"></path>
            <path d="M21.451,671 C244.784333,612.333333 308.784333,588.333333 213.451,599 C436.784333,657.666667 500.784333,681.666667 405.451,671 C628.784333,612.333333 692.784333,588.333333 597.451,599 C820.784333,657.666667 884.784333,681.666667 789.451,671 C1012.78433,612.333333 1076.78433,588.333333 981.451,599 C1204.78433,657.666667 1268.78433,681.666667 1173.451,671" id="two_16463"></path>
            <path d="M20.452,674 C244.452,615.333333 308.452,591.333333 212.452,602 C436.452,660.666667 500.452,684.666667 404.452,674 C628.452,615.333333 692.452,591.333333 596.452,602 C820.452,660.666667 884.452,684.666667 788.452,674 C1012.452,615.333333 1076.452,591.333333 980.452,602 C1204.452,660.666667 1268.452,684.666667 1172.452,674" id="two_16465"></path>
            <path d="M21.453,678 C244.119667,618.666667 308.119667,594 213.453,604 C436.119667,663.333333 500.119667,688 405.453,678 C628.119667,618.666667 692.119667,594 597.453,604 C820.119667,663.333333 884.119667,688 789.453,678 C1012.11967,618.666667 1076.11967,594 981.453,604 C1204.11967,663.333333 1268.11967,688 1173.453,678" id="two_16467"></path>
            <path d="M23.454,680 C244.787333,621.333333 308.787333,597.333333 215.454,608 C436.787333,666.666667 500.787333,690.666667 407.454,680 C628.787333,621.333333 692.787333,597.333333 599.454,608 C820.787333,666.666667 884.787333,690.666667 791.454,680 C1012.78733,621.333333 1076.78733,597.333333 983.454,608 C1204.78733,666.666667 1268.78733,690.666667 1175.454,680" id="two_16469"></path>
            <path d="M22.455,683 C244.455,624.333333 308.455,600.333333 214.455,611 C436.455,669.666667 500.455,693.666667 406.455,683 C628.455,624.333333 692.455,600.333333 598.455,611 C820.455,669.666667 884.455,693.666667 790.455,683 C1012.455,624.333333 1076.455,600.333333 982.455,611 C1204.455,669.666667 1268.455,693.666667 1174.455,683" id="two_16471"></path>
            <path d="M23.456,687 C244.122667,627.666667 308.122667,603 215.456,613 C436.122667,672.333333 500.122667,697 407.456,687 C628.122667,627.666667 692.122667,603 599.456,613 C820.122667,672.333333 884.122667,697 791.456,687 C1012.12267,627.666667 1076.12267,603 983.456,613 C1204.12267,672.333333 1268.12267,697 1175.456,687" id="two_16473"></path>
            <path d="M24.458,689 C244.458,630.333333 308.458,606.333333 216.458,617 C436.458,675.666667 500.458,699.666667 408.458,689 C628.458,630.333333 692.458,606.333333 600.458,617 C820.458,675.666667 884.458,699.666667 792.458,689 C1012.458,630.333333 1076.458,606.333333 984.458,617 C1204.458,675.666667 1268.458,699.666667 1176.458,689" id="two_16475"></path>
            <path d="M23.459,693 C244.125667,634.333333 308.125667,609.666667 215.459,619 C436.125667,677.666667 500.125667,702.333333 407.459,693 C628.125667,634.333333 692.125667,609.666667 599.459,619 C820.125667,677.666667 884.125667,702.333333 791.459,693 C1012.12567,634.333333 1076.12567,609.666667 983.459,619 C1204.12567,677.666667 1268.12567,702.333333 1175.459,693" id="two_16477"></path>
            <path d="M24.46,696 C244.46,637.333333 308.46,612.666667 216.46,622 C436.46,680.666667 500.46,705.333333 408.46,696 C628.46,637.333333 692.46,612.666667 600.46,622 C820.46,680.666667 884.46,705.333333 792.46,696 C1012.46,637.333333 1076.46,612.666667 984.46,622 C1204.46,680.666667 1268.46,705.333333 1176.46,696" id="two_16479"></path>
            <path d="M24.461,698 C244.461,640 308.461,616 216.461,626 C436.461,684 500.461,708 408.461,698 C628.461,640 692.461,616 600.461,626 C820.461,684 884.461,708 792.461,698 C1012.461,640 1076.461,616 984.461,626 C1204.461,684 1268.461,708 1176.461,698" id="two_16481"></path>
            <path d="M24.462,702 C245.128667,643.333333 309.128667,618.666667 216.462,628 C437.128667,686.666667 501.128667,711.333333 408.462,702 C629.128667,643.333333 693.128667,618.666667 600.462,628 C821.128667,686.666667 885.128667,711.333333 792.462,702 C1013.12867,643.333333 1077.12867,618.666667 984.462,628 C1205.12867,686.666667 1269.12867,711.333333 1176.462,702" id="two_16483"></path>
            <path d="M26.463,705 C245.796333,646.333333 309.796333,621.666667 218.463,631 C437.796333,689.666667 501.796333,714.333333 410.463,705 C629.796333,646.333333 693.796333,621.666667 602.463,631 C821.796333,689.666667 885.796333,714.333333 794.463,705 C1013.79633,646.333333 1077.79633,621.666667 986.463,631 C1205.79633,689.666667 1269.79633,714.333333 1178.463,705" id="two_16485"></path>
            <path d="M24.465,708 C245.131667,648.666667 309.465,624.333333 217.465,635 C437.465,693 501.131667,717.333333 408.465,708 C629.131667,648.666667 693.465,624.333333 601.465,635 C821.465,693 885.131667,717.333333 792.465,708 C1013.13167,648.666667 1077.465,624.333333 985.465,635 C1205.465,693 1269.13167,717.333333 1176.465,708" id="two_16487"></path>
            <path d="M25.466,712 C245.466,652 309.466,626.666667 217.466,636 C437.466,696 501.466,721.333333 409.466,712 C629.466,652 693.466,626.666667 601.466,636 C821.466,696 885.466,721.333333 793.466,712 C1013.466,652 1077.466,626.666667 985.466,636 C1205.466,696 1269.466,721.333333 1177.466,712" id="two_16489"></path>
            <path d="M26.467,714 C245.800333,654.666667 309.800333,630 218.467,640 C437.800333,699.333333 501.800333,724 410.467,714 C629.800333,654.666667 693.800333,630 602.467,640 C821.800333,699.333333 885.800333,724 794.467,714 C1013.80033,654.666667 1077.80033,630 986.467,640 C1205.80033,699.333333 1269.80033,724 1178.467,714" id="two_16491"></path>
            <path d="M24.468,717 C245.134667,657 309.134667,632.333333 216.468,643 C437.134667,703 501.134667,727.666667 408.468,717 C629.134667,657 693.134667,632.333333 600.468,643 C821.134667,703 885.134667,727.666667 792.468,717 C1013.13467,657 1077.13467,632.333333 984.468,643 C1205.13467,703 1269.13467,727.666667 1176.468,717" id="two_16493"></path>
            <path d="M26.469,722 C245.802333,660.666667 309.802333,634.666667 218.469,644 C437.802333,705.333333 501.802333,731.333333 410.469,722 C629.802333,660.666667 693.802333,634.666667 602.469,644 C821.802333,705.333333 885.802333,731.333333 794.469,722 C1013.80233,660.666667 1077.80233,634.666667 986.469,644 C1205.80233,705.333333 1269.80233,731.333333 1178.469,722" id="two_16495"></path>
            <path d="M25.47,723 C244.803333,663 308.803333,638.333333 217.47,649 C436.803333,709 500.803333,733.666667 409.47,723 C628.803333,663 692.803333,638.333333 601.47,649 C820.803333,709 884.803333,733.666667 793.47,723 C1012.80333,663 1076.80333,638.333333 985.47,649 C1204.80333,709 1268.80333,733.666667 1177.47,723" id="two_16497"></path>
            <path d="M25.471,728 C244.804333,666.666667 308.804333,640.666667 217.471,650 C436.804333,711.333333 500.804333,737.333333 409.471,728 C628.804333,666.666667 692.804333,640.666667 601.471,650 C820.804333,711.333333 884.804333,737.333333 793.471,728 C1012.80433,666.666667 1076.80433,640.666667 985.471,650 C1204.80433,711.333333 1268.80433,737.333333 1177.471,728" id="two_16499"></path>
            <path d="M26.472,730 C245.138667,669.333333 309.138667,644 218.472,654 C437.138667,714.666667 501.138667,740 410.472,730 C629.138667,669.333333 693.138667,644 602.472,654 C821.138667,714.666667 885.138667,740 794.472,730 C1013.13867,669.333333 1077.13867,644 986.472,654 C1205.13867,714.666667 1269.13867,740 1178.472,730" id="two_16501"></path>
            <path d="M24.474,733 C243.807333,672.333333 307.807333,647 216.474,657 C435.807333,717.666667 499.807333,743 408.474,733 C627.807333,672.333333 691.807333,647 600.474,657 C819.807333,717.666667 883.807333,743 792.474,733 C1011.80733,672.333333 1075.80733,647 984.474,657 C1203.80733,717.666667 1267.80733,743 1176.474,733" id="two_16503"></path>
            <path d="M25.475,738 C244.141667,676 308.141667,649.333333 217.475,658 C436.141667,720 500.141667,746.666667 409.475,738 C628.141667,676 692.141667,649.333333 601.475,658 C820.141667,720 884.141667,746.666667 793.475,738 C1012.14167,676 1076.14167,649.333333 985.475,658 C1204.14167,720 1268.14167,746.666667 1177.475,738" id="two_16505"></path>
            <path d="M25.476,739 C244.142667,678.333333 308.142667,653 217.476,663 C436.142667,723.666667 500.142667,749 409.476,739 C628.142667,678.333333 692.142667,653 601.476,663 C820.142667,723.666667 884.142667,749 793.476,739 C1012.14267,678.333333 1076.14267,653 985.476,663 C1204.14267,723.666667 1268.14267,749 1177.476,739" id="two_16507"></path>
            <path d="M24.477,744 C243.143667,682 307.143667,655.333333 216.477,664 C435.143667,726 499.143667,752.666667 408.477,744 C627.143667,682 691.143667,655.333333 600.477,664 C819.143667,726 883.143667,752.666667 792.477,744 C1011.14367,682 1075.14367,655.333333 984.477,664 C1203.14367,726 1267.14367,752.666667 1176.477,744" id="two_16509"></path>
            <path d="M25.478,746 C243.478,684.666667 307.478,658.666667 217.478,668 C435.478,729.333333 499.478,755.333333 409.478,746 C627.478,684.666667 691.478,658.666667 601.478,668 C819.478,729.333333 883.478,755.333333 793.478,746 C1011.478,684.666667 1075.478,658.666667 985.478,668 C1203.478,729.333333 1267.478,755.333333 1177.478,746" id="two_16511"></path>
            <path d="M23.479,749 C242.812333,688.333333 306.812333,662.333333 215.479,671 C434.812333,731.666667 498.812333,757.666667 407.479,749 C626.812333,688.333333 690.812333,662.333333 599.479,671 C818.812333,731.666667 882.812333,757.666667 791.479,749 C1010.81233,688.333333 1074.81233,662.333333 983.479,671 C1202.81233,731.666667 1266.81233,757.666667 1175.479,749" id="two_16513"></path>
            <path d="M25.48,753 C244.146667,691.666667 308.146667,665 217.48,673 C436.146667,734.333333 500.146667,761 409.48,753 C628.146667,691.666667 692.146667,665 601.48,673 C820.146667,734.333333 884.146667,761 793.48,753 C1012.14667,691.666667 1076.14667,665 985.48,673 C1204.14667,734.333333 1268.14667,761 1177.48,753" id="two_16515"></path>
            <path d="M24.481,755 C243.814333,694.333333 307.814333,668.333333 216.481,677 C435.814333,737.666667 499.814333,763.666667 408.481,755 C627.814333,694.333333 691.814333,668.333333 600.481,677 C819.814333,737.666667 883.814333,763.666667 792.481,755 C1011.81433,694.333333 1075.81433,668.333333 984.481,677 C1203.81433,737.666667 1267.81433,763.666667 1176.481,755" id="two_16517"></path>
            <path d="M23.482,760 C243.482,698 307.482,670.666667 215.482,678 C435.482,740 499.482,767.333333 407.482,760 C627.482,698 691.482,670.666667 599.482,678 C819.482,740 883.482,767.333333 791.482,760 C1011.482,698 1075.482,670.666667 983.482,678 C1203.482,740 1267.482,767.333333 1175.482,760" id="two_16519"></path>
            <path d="M24.483,761 C243.816333,700.333333 307.816333,674.333333 216.483,683 C435.816333,743.666667 499.816333,769.666667 408.483,761 C627.816333,700.333333 691.816333,674.333333 600.483,683 C819.816333,743.666667 883.816333,769.666667 792.483,761 C1011.81633,700.333333 1075.81633,674.333333 984.483,683 C1203.81633,743.666667 1267.81633,769.666667 1176.483,761" id="two_16521"></path>
            <path d="M22.484,765 C243.150667,703 307.150667,676.333333 214.484,685 C435.150667,747 499.150667,773.666667 406.484,765 C627.150667,703 691.150667,676.333333 598.484,685 C819.150667,747 883.150667,773.666667 790.484,765 C1011.15067,703 1075.15067,676.333333 982.484,685 C1203.15067,747 1267.15067,773.666667 1174.484,765" id="two_16523"></path>
            <path d="M23.485,769 C243.485,706.333333 307.485,679 215.485,687 C435.485,749.666667 499.485,777 407.485,769 C627.485,706.333333 691.485,679 599.485,687 C819.485,749.666667 883.485,777 791.485,769 C1011.485,706.333333 1075.485,679 983.485,687 C1203.485,749.666667 1267.485,777 1175.485,769" id="two_16525"></path>
            <path d="M21.487,770 C242.820333,708.666667 306.820333,682.666667 213.487,692 C434.820333,753.333333 498.820333,779.333333 405.487,770 C626.820333,708.666667 690.820333,682.666667 597.487,692 C818.820333,753.333333 882.820333,779.333333 789.487,770 C1010.82033,708.666667 1074.82033,682.666667 981.487,692 C1202.82033,753.333333 1266.82033,779.333333 1173.487,770" id="two_16527"></path>
            <path d="M21.488,775 C242.821333,711.666667 306.821333,684.333333 213.488,693 C434.821333,756.333333 498.821333,783.666667 405.488,775 C626.821333,711.666667 690.821333,684.333333 597.488,693 C818.821333,756.333333 882.821333,783.666667 789.488,775 C1010.82133,711.666667 1074.82133,684.333333 981.488,693 C1202.82133,756.333333 1266.82133,783.666667 1173.488,775" id="two_16529"></path>
            <path d="M21.489,776 C242.822333,714 306.822333,688 213.489,698 C434.822333,760 498.822333,786 405.489,776 C626.822333,714 690.822333,688 597.489,698 C818.822333,760 882.822333,786 789.489,776 C1010.82233,714 1074.82233,688 981.489,698 C1202.82233,760 1266.82233,786 1173.489,776" id="two_16531"></path>
            <path d="M20.49,781 C242.49,717.666667 306.49,690.333333 212.49,699 C434.49,762.333333 498.49,789.666667 404.49,781 C626.49,717.666667 690.49,690.333333 596.49,699 C818.49,762.333333 882.49,789.666667 788.49,781 C1010.49,717.666667 1074.49,690.333333 980.49,699 C1202.49,762.333333 1266.49,789.666667 1172.49,781" id="two_16533"></path>
            <path d="M21.491,783 C242.157667,720.333333 306.157667,693.666667 213.491,703 C434.157667,765.666667 498.157667,792.333333 405.491,783 C626.157667,720.333333 690.157667,693.666667 597.491,703 C818.157667,765.666667 882.157667,792.333333 789.491,783 C1010.15767,720.333333 1074.15767,693.666667 981.491,703 C1202.15767,765.666667 1266.15767,792.333333 1173.491,783" id="two_16535"></path>
            <path d="M19.492,786 C241.492,723.333333 305.492,696.666667 211.492,706 C433.492,768.666667 497.492,795.333333 403.492,786 C625.492,723.333333 689.492,696.666667 595.492,706 C817.492,768.666667 881.492,795.333333 787.492,786 C1009.492,723.333333 1073.492,696.666667 979.492,706 C1201.492,768.666667 1265.492,795.333333 1171.492,786" id="two_16537"></path>
            <path d="M20.493,789 C241.159667,726.333333 305.159667,699.666667 212.493,709 C433.159667,771.666667 497.159667,798.333333 404.493,789 C625.159667,726.333333 689.159667,699.666667 596.493,709 C817.159667,771.666667 881.159667,798.333333 788.493,789 C1009.15967,726.333333 1073.15967,699.666667 980.493,709 C1201.15967,771.666667 1265.15967,798.333333 1172.493,789" id="two_16539"></path>
            <path d="M18.494,791 C240.494,729 304.494,703 210.494,713 C432.494,775 496.494,801 402.494,791 C624.494,729 688.494,703 594.494,713 C816.494,775 880.494,801 786.494,791 C1008.494,729 1072.494,703 978.494,713 C1200.494,775 1264.494,801 1170.494,791" id="two_16541"></path>
            <path d="M18.495,796 C240.495,732.666667 304.495,705.333333 210.495,714 C432.495,777.333333 496.495,804.666667 402.495,796 C624.495,732.666667 688.495,705.333333 594.495,714 C816.495,777.333333 880.495,804.666667 786.495,796 C1008.495,732.666667 1072.495,705.333333 978.495,714 C1200.495,777.333333 1264.495,804.666667 1170.495,796" id="two_16543"></path>
            <path d="M17.496,797 C240.162667,735 304.162667,709 209.496,719 C432.162667,781 496.162667,807 401.496,797 C624.162667,735 688.162667,709 593.496,719 C816.162667,781 880.162667,807 785.496,797 C1008.16267,735 1072.16267,709 977.496,719 C1200.16267,781 1264.16267,807 1169.496,797" id="two_16545"></path>
            <path d="M16.497,801 C239.830333,738.333333 303.830333,711.666667 208.497,721 C431.830333,783.666667 495.830333,810.333333 400.497,801 C623.830333,738.333333 687.830333,711.666667 592.497,721 C815.830333,783.666667 879.830333,810.333333 784.497,801 C1007.83033,738.333333 1071.83033,711.666667 976.497,721 C1199.83033,783.666667 1263.83033,810.333333 1168.497,801" id="two_16547"></path>
            <path d="M16.498,803 C239.831333,741.666667 303.831333,715.666667 208.498,725 C431.831333,786.333333 495.831333,812.333333 400.498,803 C623.831333,741.666667 687.831333,715.666667 592.498,725 C815.831333,786.333333 879.831333,812.333333 784.498,803 C1007.83133,741.666667 1071.83133,715.666667 976.498,725 C1199.83133,786.333333 1263.83133,812.333333 1168.498,803" id="two_16549"></path>
            <path d="M15.499,807 C239.499,745 303.499,718.333333 207.499,727 C431.499,789 495.499,815.666667 399.499,807 C623.499,745 687.499,718.333333 591.499,727 C815.499,789 879.499,815.666667 783.499,807 C1007.499,745 1071.499,718.333333 975.499,727 C1199.499,789 1263.499,815.666667 1167.499,807" id="two_16551"></path>
            <path d="M16.5,809 C239.833333,747.666667 303.833333,721.666667 208.5,731 C431.833333,792.333333 495.833333,818.333333 400.5,809 C623.833333,747.666667 687.833333,721.666667 592.5,731 C815.833333,792.333333 879.833333,818.333333 784.5,809 C1007.83333,747.666667 1071.83333,721.666667 976.5,731 C1199.83333,792.333333 1263.83333,818.333333 1168.5,809" id="two_16553"></path>
        </g>
    </g>
</svg>